<svg id="Layer_1" data-name="Layer 1" xmlns="http://www.w3.org/2000/svg" viewBox="0 0 114.35 32.46"><defs><style>.cls-1{fill:#4d4d4d;}.cls-2{fill:#25c16f;}.cls-3{fill:#fff;}</style></defs><title>freshdesk</title><path class="cls-1" d="M117,36.07l-3.5-4.54L116.72,29a.75.75,0,0,0,.32-.64.73.73,0,0,0-.7-.76h0a.68.68,0,0,0-.54.22l-4.58,3.73V23.34a.78.78,0,0,0-.81-.75h0a.73.73,0,0,0-.76.7V36.56a.78.78,0,0,0,.81.75h0a.73.73,0,0,0,.76-.7V33.36l1.07-.85L115.77,37a.9.9,0,0,0,.64.37.73.73,0,0,0,.75-.7v-.06a.59.59,0,0,0-.12-.51Zm-12.46-4.41c-1.17-.42-2.12-.76-2.12-1.6S103.52,29,104.11,29a2.78,2.78,0,0,1,2.12.81.66.66,0,0,0,.53.22.7.7,0,0,0,.69-.68.93.93,0,0,0-.17-.49,3.8,3.8,0,0,0-3.15-1.34c-2,0-3.19,1-3.19,2.56,0,1.92,1.71,2.5,3.19,3.05,1.12.36,2.12.68,2.12,1.53S105,36,104.23,36a3.22,3.22,0,0,1-2.46-.95,1.11,1.11,0,0,0-.54-.27.7.7,0,0,0-.68.69.78.78,0,0,0,.17.48,4.46,4.46,0,0,0,3.56,1.49c2.24,0,3.56-1.07,3.56-2.78s-1.78-2.46-3.27-3Zm-9.22-2.78c1.6,0,2.4.9,2.47,2.65h-5.2A2.59,2.59,0,0,1,95.35,28.88Zm4,2.65A4.72,4.72,0,0,0,98.6,29a3.65,3.65,0,0,0-3.24-1.49c-2.71,0-4.27,1.8-4.27,4.95s1.53,5,4.48,5a4.66,4.66,0,0,0,3.25-1.17.68.68,0,0,0,.27-.54.7.7,0,0,0-.69-.68.58.58,0,0,0-.41.17,3.78,3.78,0,0,1-2.34.85,2.83,2.83,0,0,1-2.93-3h5.73c.9-.09.9-1,.9-1.48ZM85.23,36c-1.8,0-2.7-1.17-2.7-3.56s.9-3.56,2.7-3.56a3.06,3.06,0,0,1,2.56,1.66v2.78A2.44,2.44,0,0,1,85.21,36Zm3.32-13.48a.73.73,0,0,0-.76.7v5.27a3.68,3.68,0,0,0-2.6-1.07q-4.14,0-4.14,4.95c0,3.31,1.49,5,4.27,5s4.09-1.54,4.09-4.1V23.34a.9.9,0,0,0-.88-.8Zm-13,4.9A3.16,3.16,0,0,0,73,28.56V23.34a.78.78,0,0,0-.75-.81h-.05a.74.74,0,0,0-.76.7V36.56a.78.78,0,0,0,.76.8h0a.77.77,0,0,0,.8-.75v-5c0-1.8.86-2.7,2.56-2.7s2.3.75,2.3,2.56v5.12a.77.77,0,0,0,.75.8h0a.73.73,0,0,0,.76-.7V31.17c0-2.46-1.32-3.73-3.88-3.73Zm-9.21,4.22c-1.17-.42-2.12-.76-2.12-1.6S65.34,29,65.93,29a2.78,2.78,0,0,1,2.12.81.72.72,0,0,0,1,0,.7.7,0,0,0,.22-.54.93.93,0,0,0-.17-.49A3.82,3.82,0,0,0,66,27.42c-2,0-3.19,1-3.19,2.56,0,1.93,1.71,2.5,3.19,3.05,1.13.37,2.12.68,2.12,1.54s-1.26,1.34-2,1.34A3.27,3.27,0,0,1,63.61,35a1,1,0,0,0-.54-.27.69.69,0,0,0-.68.68.79.79,0,0,0,.17.49,4.55,4.55,0,0,0,3.51,1.61c2.24,0,3.56-1.07,3.56-2.78s-1.78-2.5-3.27-3Zm-9.17-2.78c1.6,0,2.4.9,2.46,2.65H54.46a2.59,2.59,0,0,1,2.73-2.65Zm3.93,2.65A4.87,4.87,0,0,0,60.39,29a3.67,3.67,0,0,0-3.24-1.48c-2.71,0-4.27,1.8-4.27,4.95s1.54,5,4.46,5a4.63,4.63,0,0,0,3.24-1.17.68.68,0,0,0,.27-.54.69.69,0,0,0-.68-.68.57.57,0,0,0-.41.17,3.67,3.67,0,0,1-2.35.85,2.82,2.82,0,0,1-2.92-3h5.75c.9-.13.9-1,.9-1.52Zm-9.45-4A3.1,3.1,0,0,0,49,28.76v-.42a.81.81,0,0,0-1.61,0v8.22a.78.78,0,0,0,.76.8h.05a.71.71,0,0,0,.58-.22.7.7,0,0,0,.22-.58V32c0-1.92,1-3,2.66-3a.74.74,0,0,0,.76-.71v-.05a.76.76,0,0,0-.76-.73Zm-6.1-4.41A3.39,3.39,0,0,0,42,26.71v1.07h-.51a.76.76,0,1,0,0,1.49H42v7.36a.8.8,0,0,0,.76.81h0a.77.77,0,0,0,.58-.22.73.73,0,0,0,.22-.59V29.19h1.71a.75.75,0,0,0,0-1.48H43.6V26.63a1.89,1.89,0,0,1,2.07-2.12.67.67,0,0,0,.52-.18.68.68,0,0,0,.24-.5.82.82,0,0,0-.81-.76Z" transform="translate(-2.83 -13.77)"/><path class="cls-2" d="M19,13.77H31.19a4.06,4.06,0,0,1,4.1,4V30.06A16.19,16.19,0,0,1,19.11,46.23H19A16.17,16.17,0,0,1,2.83,30.06,16.31,16.31,0,0,1,19,13.77Z" transform="translate(-2.83 -13.77)"/><path class="cls-3" d="M19,21a7.43,7.43,0,0,0-7.43,7.43v5.06A2.53,2.53,0,0,0,14,36h2.1v-5.8H13.3V28.54a5.77,5.77,0,0,1,11.53,0v1.62H22V36h1.9v.09a2.32,2.32,0,0,1-2.28,2.29H19.3c-.19,0-.39.09-.39.27a.42.42,0,0,0,.39.39h2.28a3,3,0,0,0,3-3v-.18a2.44,2.44,0,0,0,1.9-2.4V28.53A7.32,7.32,0,0,0,19,21Z" transform="translate(-2.83 -13.77)"/></svg>