<svg id="Layer_1" data-name="Layer 1" xmlns="http://www.w3.org/2000/svg" viewBox="0 0 64 46.96"><defs><style>.cls-1{fill:#f2f2f2;}.cls-2,.cls-4{fill:#221f1f;isolation:isolate;}.cls-2{opacity:0.1;}.cls-3{fill:#d44c3d;}.cls-4{opacity:0.08;}</style></defs><title>gmail_square</title><path class="cls-1" d="M60,55.43H4a4,4,0,0,1-4-4V12.75a4,4,0,0,1,4-4H60a4,4,0,0,1,4,4V51.42a4,4,0,0,1-4,4Z" transform="translate(0 -8.52)"/><path class="cls-2" d="M8,55.43,31.94,37.91l.15-1L7.4,19.16,7.35,54.57Z" transform="translate(0 -8.52)"/><path class="cls-3" d="M4,55.43a4,4,0,0,1-4-4V12.7c0-2.24,1.8-2.64,4-2.64s4,.46,4,2.64V55.43Z" transform="translate(0 -8.52)"/><path class="cls-3" d="M4,10.67c2.84,0,3.4.86,3.4,2V54.87H4A3.41,3.41,0,0,1,.61,51.46V12.7C.56,11.5,1.17,10.67,4,10.67Zm0-.56c-2.22,0-4,.46-4,2.59V51.41a4,4,0,0,0,3.9,4H8V12.7c0-2.18-1.78-2.59-4-2.59Zm56,.56c2.59,0,3.41.51,3.41,1.93V51.52A3.41,3.41,0,0,1,60,54.92h-3.4V12.6C56.52,11.13,57.38,10.67,60,10.67Zm0-.56c-2.23,0-4,.3-4,2.49V55.48h4a4,4,0,0,0,4-4V12.55C63.94,10.36,62.16,10.11,60,10.11Z" transform="translate(0 -8.52)"/><path class="cls-3" d="M60,55.43H56V12.6c0-2.24,1.8-2.49,4-2.49s4,.3,4,2.49V51.52A4,4,0,0,1,60,55.43Z" transform="translate(0 -8.52)"/><path class="cls-4" d="M42.84,55.43.36,14.4l2.23.91,29.6,21.3L64,13.26V51.52a4,4,0,0,1-4,4h0Z" transform="translate(0 -8.52)"/><path class="cls-3" d="M31.92,38,1.73,16.06a4.05,4.05,0,0,1-1-5.64,4.1,4.1,0,0,1,5.69-.87L32,28.1,57.63,9.3a4,4,0,1,1,4.68,6.5Z" transform="translate(0 -8.52)"/><path class="cls-3" d="M60,9.14a3.45,3.45,0,0,1,2,6.23L31.92,37.25,2.08,15.6a3.55,3.55,0,0,1-.88-4.8A3.42,3.42,0,0,1,4.05,9.33a3.13,3.13,0,0,1,2,.66l25.46,18.5.35.2.36-.2L57.89,9.7A4.21,4.21,0,0,1,60,9.14Zm0-.61a3.65,3.65,0,0,0-2.34.76L32,28.1,6.4,9.5A3.91,3.91,0,0,0,4,8.74,4.26,4.26,0,0,0,.71,10.42a4.07,4.07,0,0,0,1,5.59L31.92,38,62.31,15.8a4,4,0,0,0,.91-5.59A4.13,4.13,0,0,0,60,8.53Z" transform="translate(0 -8.52)"/></svg>