<svg id="Layer_1" data-name="Layer 1" xmlns="http://www.w3.org/2000/svg" viewBox="0 0 100 22.9"><defs><style>.cls-1{fill:#f2f2f2;}.cls-2,.cls-4{fill:#221f1f;isolation:isolate;}.cls-2{opacity:0.1;}.cls-3{fill:#d44c3d;}.cls-4{opacity:0.08;}.cls-5{fill:#787879;}</style></defs><title>gmail</title><path class="cls-1" d="M39,41.89H11.69a1.94,1.94,0,0,1-2-1.93V21.08a2,2,0,0,1,2-2H39a2,2,0,0,1,2,2V39.93a2,2,0,0,1-2,2Z" transform="translate(-9.73 -19.02)"/><path class="cls-2" d="M13.62,41.89l11.67-8.54.08-.5-12-8.65,0,17.27Z" transform="translate(-9.73 -19.02)"/><path class="cls-3" d="M11.69,41.89a1.93,1.93,0,0,1-2-1.93V21.05c0-1.09.87-1.29,2-1.29s2,.23,2,1.29V41.89Z" transform="translate(-9.73 -19.02)"/><path class="cls-3" d="M11.69,20.06c1.39,0,1.66.43,1.66,1V41.62H11.69A1.66,1.66,0,0,1,10,40V21.06C10,20.46,10.3,20.06,11.69,20.06Zm0-.27c-1.09,0-2,.22-2,1.27V39.93a1.93,1.93,0,0,0,2,2h2V21.06C13.62,20,12.78,19.79,11.69,19.79ZM39,20.06c1.26,0,1.66.25,1.66,1V40A1.66,1.66,0,0,1,39,41.64H37.31V21C37.29,20.29,37.71,20.06,39,20.06Zm0-.27c-1.1,0-2,.15-2,1.22V41.92h2a1.94,1.94,0,0,0,2-2V21C40.91,19.92,40,19.79,39,19.79Z" transform="translate(-9.73 -19.02)"/><path class="cls-3" d="M39,41.89H37V21c0-1.09.86-1.22,2-1.22s2,.15,2,1.22V40a1.94,1.94,0,0,1-2,1.91Z" transform="translate(-9.73 -19.02)"/><path class="cls-4" d="M30.62,41.89,9.9,21.87l1.09.45L25.42,32.7,40.93,21.32V40a1.93,1.93,0,0,1-2,1.93Z" transform="translate(-9.73 -19.02)"/><path class="cls-3" d="M25.29,33.37,10.57,22.69a2,2,0,1,1,2.31-3.17l12.44,9,12.51-9.17a2,2,0,0,1,2.29,3.18Z" transform="translate(-9.73 -19.02)"/><path class="cls-3" d="M39,19.32a1.67,1.67,0,0,1,1,3L25.29,33,10.75,22.47a1.71,1.71,0,0,1-.43-2.33,1.66,1.66,0,0,1,1.39-.72,1.55,1.55,0,0,1,1,.32l12.42,9,.17.1.18-.1L38,19.59a2.09,2.09,0,0,1,1-.27Zm0-.3a1.69,1.69,0,0,0-1.14.38L25.32,28.56,12.85,19.49a2,2,0,0,0-1.16-.37,2.08,2.08,0,0,0-1.61.82,2,2,0,0,0,.49,2.73L25.29,33.38,40.12,22.57a2,2,0,0,0,.44-2.73A2,2,0,0,0,39,19Z" transform="translate(-9.73 -19.02)"/><path class="cls-5" d="M68.42,31.14a7.59,7.59,0,0,1-2.08,5.6,8.1,8.1,0,0,1-6.16,2.48,8.64,8.64,0,0,1-8.71-8.75A8.49,8.49,0,0,1,54,24.24a8.4,8.4,0,0,1,6.18-2.53,9.26,9.26,0,0,1,3.49.66,6.85,6.85,0,0,1,2.69,1.85l-1.55,1.54a5.17,5.17,0,0,0-2-1.46,6.64,6.64,0,0,0-2.63-.53,6.3,6.3,0,0,0-4.64,1.9,6.59,6.59,0,0,0-1.87,4.8,6.59,6.59,0,0,0,1.87,4.8,6.33,6.33,0,0,0,4.64,1.89,6.23,6.23,0,0,0,4.16-1.4,5.6,5.6,0,0,0,1.92-3.86H60.18v-2H68.3a7.69,7.69,0,0,1,.12,1.27Zm4.4,7.7H70.67V27.38h2.06V29h.09a3.9,3.9,0,0,1,1.51-1.41,4.21,4.21,0,0,1,4.25,0A3.38,3.38,0,0,1,80,29.2a4.49,4.49,0,0,1,4-2.2A3.9,3.9,0,0,1,87,28.22a5.1,5.1,0,0,1,1.07,3.46v7.16H85.93V32a3.75,3.75,0,0,0-.58-2.33,2.44,2.44,0,0,0-2-.71A2.56,2.56,0,0,0,81.3,30a3.86,3.86,0,0,0-.85,2.48v6.34H78.3V32a3.75,3.75,0,0,0-.58-2.33,2.44,2.44,0,0,0-2-.71A2.56,2.56,0,0,0,73.67,30a3.86,3.86,0,0,0-.84,2.48v6.34ZM94.84,27a5.33,5.33,0,0,1,3.77,1.28,4.52,4.52,0,0,1,1.38,3.5v7.06H97.93V37.25h-.09a4.12,4.12,0,0,1-3.56,2,4.63,4.63,0,0,1-3.17-1.13,3.59,3.59,0,0,1-1.28-2.81,3.41,3.41,0,0,1,1.35-2.83,5.7,5.7,0,0,1,3.59-1.05,6.32,6.32,0,0,1,3.16.7v-.49A2.43,2.43,0,0,0,97,29.7,3,3,0,0,0,95,28.92a3.33,3.33,0,0,0-2.86,1.52l-1.89-1.19A5.27,5.27,0,0,1,94.84,27Zm-2.78,8.34a1.72,1.72,0,0,0,.71,1.4,2.68,2.68,0,0,0,1.68.56,3.4,3.4,0,0,0,2.42-1,3.13,3.13,0,0,0,1.06-2.36,4.41,4.41,0,0,0-2.81-.8,3.56,3.56,0,0,0-2.18.64,1.86,1.86,0,0,0-.88,1.56Zm13.15-11.92a1.46,1.46,0,0,1-.44,1.08,1.5,1.5,0,0,1-1.08.44,1.52,1.52,0,0,1-1.07-2.6,1.53,1.53,0,0,1,2.15,0,1.46,1.46,0,0,1,.44,1.08Zm-.44,4V38.84h-2.15V27.38Zm5-5.29V38.84h-2.15V22.09Z" transform="translate(-9.73 -19.02)"/></svg>