<svg id="Layer_1" data-name="Layer 1" xmlns="http://www.w3.org/2000/svg" viewBox="0 0 255.51 278.08"><defs><style>.cls-1{fill:#ffc300;}.cls-1,.cls-2,.cls-3{fill-rule:evenodd;}.cls-2{fill:#ff8d00;}.cls-3{fill:#ff4f00;}</style></defs><title>happyfox_square</title><g id="Presskit"><g id="color"><g id="Group"><polygon id="Shape" class="cls-1" points="127.73 278.08 0 182.72 0 135.08 73.54 151.74 127.79 227.59 181.95 151.74 255.5 135.08 255.5 135.08 255.51 135.08 255.51 182.72 127.73 278.08"/><path class="cls-2" d="M212.2,224.44v110.9h0L340,263.16s-95.71-56-103.9-59.27c-15.38-6.28-23.85-7.21-23.85,20.55Z" transform="translate(-212.2 -200.26)"/><path class="cls-3" d="M443.86,203.9C435.67,207.2,340.24,263,340.24,263l-128,72.35L285.76,352l54.18,75.85L394.21,352l73.51-16.66V224.44c0-27.76-8.47-26.83-23.86-20.54Z" transform="translate(-212.2 -200.26)"/></g></g></g></svg>