<svg id="Layer_1" data-name="Layer 1" xmlns="http://www.w3.org/2000/svg" viewBox="0 0 32 32"><defs><style>.cls-1{fill:#286efa;fill-rule:evenodd;}</style></defs><title>intercom_square</title><path id="SVGID" class="cls-1" d="M42,14H18a4,4,0,0,0-4,4V42a4,4,0,0,0,4,4H42a4,4,0,0,0,4-4V18A4,4,0,0,0,42,14Zm-7.73,5.87a1.07,1.07,0,1,1,2.13,0V34.12a1.07,1.07,0,1,1-2.13,0Zm-5.34-.54a1.07,1.07,0,0,1,2.14,0V34.79a1.07,1.07,0,1,1-2.14,0Zm-5.33.54a1.07,1.07,0,1,1,2.13,0V34.12a1.07,1.07,0,1,1-2.13,0ZM18.27,22a1.07,1.07,0,1,1,2.13,0v9.59a1.07,1.07,0,1,1-2.13,0ZM41.36,38.27c-.16.14-4.12,3.46-11.36,3.46s-11.19-3.32-11.36-3.46A1.06,1.06,0,0,1,20,36.65c.07.05,3.59,2.94,10,2.94s9.94-2.91,10-2.94a1.07,1.07,0,0,1,1.39,1.62Zm.37-6.68a1.07,1.07,0,1,1-2.13,0V22a1.07,1.07,0,1,1,2.13,0Z" transform="translate(-14 -14)"/></svg>