<svg id="Layer_1" data-name="Layer 1" xmlns="http://www.w3.org/2000/svg" viewBox="0 0 73.97 51.8"><defs><style>.cls-1{fill:#00a1e0;}.cls-2{fill:#fff;}</style></defs><title>salesforce_square</title><path class="cls-1" d="M53.78,9.77A13,13,0,0,1,74.59,12.5a15.74,15.74,0,0,1,6.46-1.37A16.08,16.08,0,1,1,77.92,43a11.71,11.71,0,0,1-15.29,4.81,13.3,13.3,0,0,1-24.73-.6,12.62,12.62,0,0,1-2.53.25A12.41,12.41,0,0,1,23,35a12.54,12.54,0,0,1,6.18-10.82A14,14,0,0,1,28,18.41,14.35,14.35,0,0,1,53.78,9.77" transform="translate(-23.01 -4.1)"/><path class="cls-2" d="M33.72,31l.31-.83c.06-.14.14-.08.2-.05l.26.17a3.51,3.51,0,0,0,2,.57c.65,0,1.08-.35,1.08-.83v0c0-.51-.63-.71-1.37-.94L36,29c-1-.29-2.07-.71-2.07-2v0a2.13,2.13,0,0,1,2.36-2.05h.14a4,4,0,0,1,2.16.6.14.14,0,0,1,.09.17l-.32.83c-.05.14-.2,0-.2,0a4.34,4.34,0,0,0-1.93-.48c-.6,0-1,.31-1,.74v0c0,.48.66.71,1.4.94l.14,0c1,.31,2.05.74,2.05,2v0c0,1.31-.94,2.1-2.45,2.1a4.58,4.58,0,0,1-2.22-.51,3.94,3.94,0,0,1-.43-.25c0-.06-.08-.09,0-.2Zm22.2,0,.31-.83a.12.12,0,0,1,.2-.05l.26.17a3.51,3.51,0,0,0,2,.57c.66,0,1.08-.35,1.08-.83v0c0-.51-.63-.71-1.37-.94L58.19,29c-1-.29-2.07-.71-2.07-2v0a2.13,2.13,0,0,1,2.36-2.05h.14a4,4,0,0,1,2.16.6.14.14,0,0,1,.09.17l-.31.83c-.06.14-.2,0-.2,0a4.41,4.41,0,0,0-1.94-.48c-.6,0-1,.31-1,.74v0c0,.48.66.71,1.4.94l.14,0c1,.31,2,.74,2,2v0c0,1.31-.94,2.1-2.45,2.1a4.58,4.58,0,0,1-2.22-.51,3.94,3.94,0,0,1-.43-.25c0-.06,0-.09,0-.2Zm16.45-3.9a5.44,5.44,0,0,1,.2,1.36,4.37,4.37,0,0,1-.2,1.37,3,3,0,0,1-.57,1.1,2.79,2.79,0,0,1-1,.74,3.71,3.71,0,0,1-2.73,0,2.56,2.56,0,0,1-1-.74,2.82,2.82,0,0,1-.57-1.1,5,5,0,0,1-.2-1.37,4.3,4.3,0,0,1,.2-1.36,2.69,2.69,0,0,1,.57-1.1,2.62,2.62,0,0,1,1-.74,3.36,3.36,0,0,1,1.36-.29,3,3,0,0,1,1.37.29,2.56,2.56,0,0,1,1,.74A3,3,0,0,1,72.37,27.07Zm-1.28,1.34a3.13,3.13,0,0,0-.4-1.71,1.37,1.37,0,0,0-1.22-.6,1.35,1.35,0,0,0-1.23.6,3.22,3.22,0,0,0-.4,1.71,3.35,3.35,0,0,0,.4,1.73,1.55,1.55,0,0,0,2.45,0A3,3,0,0,0,71.09,28.41Zm11.69,2.13.32.85c0,.12-.06.15-.06.15a4.89,4.89,0,0,1-1.79.31,3.22,3.22,0,0,1-2.51-.94,3.64,3.64,0,0,1-.85-2.53,4.37,4.37,0,0,1,.2-1.37,2.79,2.79,0,0,1,.63-1.1,2.88,2.88,0,0,1,1-.74,3.46,3.46,0,0,1,1.42-.28c.32,0,.63,0,.94.05a4.38,4.38,0,0,1,.86.23s.11.06.08.14l-.31.86c-.06.14-.14.08-.14.08a4.1,4.1,0,0,0-1.34-.2,1.58,1.58,0,0,0-1.4.63,2.63,2.63,0,0,0-.48,1.68,2.48,2.48,0,0,0,.54,1.73,1.86,1.86,0,0,0,1.45.54,6.34,6.34,0,0,0,.68-.05,2.7,2.7,0,0,0,.6-.17c0,.05.09,0,.14.14Zm6.46-3.73a3.84,3.84,0,0,1,.12,1.85.12.12,0,0,1-.12.12H85a1.94,1.94,0,0,0,.51,1.42,2,2,0,0,0,1.48.51,4.28,4.28,0,0,0,1.76-.31.15.15,0,0,1,.17.08l.29.8c.06.14,0,.17,0,.2a4.43,4.43,0,0,1-2.16.43,4.34,4.34,0,0,1-1.57-.26,3,3,0,0,1-1.08-.71,3.14,3.14,0,0,1-.62-1.08,4.35,4.35,0,0,1-.2-1.36,4.1,4.1,0,0,1,.2-1.37,2.69,2.69,0,0,1,.57-1.1,2.74,2.74,0,0,1,1-.74A3.2,3.2,0,0,1,86.69,25a2.77,2.77,0,0,1,1.22.26,2.51,2.51,0,0,1,1.34,1.57ZM85,27.72h3a2.14,2.14,0,0,0-.29-1,1.29,1.29,0,0,0-1.19-.63,1.34,1.34,0,0,0-1.22.63,3,3,0,0,0-.35,1Zm-30.08-.91A4.52,4.52,0,0,1,55,28.66a.11.11,0,0,1-.11.12h-4.3a1.9,1.9,0,0,0,.52,1.42,2,2,0,0,0,1.48.51,4.28,4.28,0,0,0,1.76-.31.15.15,0,0,1,.17.08l.29.8c0,.14,0,.17,0,.2a4.48,4.48,0,0,1-2.17.43,4.32,4.32,0,0,1-1.56-.26A2.83,2.83,0,0,1,50,30.94a3.34,3.34,0,0,1-.63-1.08,4.76,4.76,0,0,1,0-2.73,3,3,0,0,1,.57-1.1,2.78,2.78,0,0,1,1-.74A3.16,3.16,0,0,1,52.36,25a2.82,2.82,0,0,1,1.23.26,2.4,2.4,0,0,1,.82.63,2.29,2.29,0,0,1,.49.94Zm-4.27.91H53.7a2.26,2.26,0,0,0-.29-1,1.29,1.29,0,0,0-1.19-.63A1.37,1.37,0,0,0,51,26.7,2.45,2.45,0,0,0,50.62,27.72Zm-7.54-.23.71.09v-.17c0-.57-.11-.86-.34-1a1.8,1.8,0,0,0-1.05-.28,4.67,4.67,0,0,0-1.88.43.12.12,0,0,1-.06,0s-.11,0-.14-.05L40,25.67a.13.13,0,0,1,0-.17A4,4,0,0,1,41.34,25a7.48,7.48,0,0,1,1.14-.12,2.9,2.9,0,0,1,2,.6,2.43,2.43,0,0,1,.68,1.91v3.93a.15.15,0,0,1-.09.14l-.31.08-1.08.2a6.26,6.26,0,0,1-1.31.12,4.43,4.43,0,0,1-1.14-.12,2.68,2.68,0,0,1-.88-.37,1.9,1.9,0,0,1-.57-.68,2.07,2.07,0,0,1-.2-1,2.22,2.22,0,0,1,.23-1A2,2,0,0,1,40.4,28a3.06,3.06,0,0,1,.89-.43,4,4,0,0,1,1.05-.14l.74,0Zm-1.71,3a1.94,1.94,0,0,0,1.25.26,7.75,7.75,0,0,0,1.17-.15v-2a9,9,0,0,0-1.17-.08,2,2,0,0,0-1.25.31.92.92,0,0,0-.37.82,1.23,1.23,0,0,0,.14.57A.52.52,0,0,0,41.37,30.51ZM77.66,25.3c0,.12-.26.71-.31.91a.16.16,0,0,1-.17.12,2.56,2.56,0,0,0-.49-.06,2.24,2.24,0,0,0-.57.08,1.43,1.43,0,0,0-.54.32,1.41,1.41,0,0,0-.37.62,4.25,4.25,0,0,0-.14,1.14v3.19a.14.14,0,0,1-.14.14H73.79a.14.14,0,0,1-.14-.14v-6.4a.13.13,0,0,1,.11-.14h1.1c.09,0,.12.05.12.14v.51a1.8,1.8,0,0,1,.71-.54,2.25,2.25,0,0,1,1.1-.17,4.48,4.48,0,0,1,.71.12c.11,0,.17.05.14.17Zm-10.56-3a.11.11,0,0,1,.08.14l-.34.91c0,.06-.06.12-.2.06l-.23-.06a1.72,1.72,0,0,0-.34,0,2.06,2.06,0,0,0-.45.05.73.73,0,0,0-.37.23,1.5,1.5,0,0,0-.32.46,4.1,4.1,0,0,0-.22,1h1.36c.11,0,.14.06.14.15L66,26.1c0,.14-.14.11-.14.11H64.48l-.91,5.5a12.09,12.09,0,0,1-.37,1.45,2.64,2.64,0,0,1-.57,1,1.64,1.64,0,0,1-.8.54,2.75,2.75,0,0,1-1,.17,2.81,2.81,0,0,1-.63,0,1.52,1.52,0,0,1-.4-.12.13.13,0,0,1,0-.17l.31-.88c.06-.11.14-.06.14-.06l.23.09a1.64,1.64,0,0,0,.85-.06.81.81,0,0,0,.4-.31,2.7,2.7,0,0,0,.32-.6,9.43,9.43,0,0,0,.25-1.05l1-5.38h-.94c-.11,0-.14-.06-.14-.14l.17-.89c0-.14.14-.11.14-.11h1l.05-.28a3.54,3.54,0,0,1,.86-1.94,2.48,2.48,0,0,1,1.82-.65,3.45,3.45,0,0,1,.6.05.63.63,0,0,1,.39.06ZM47.92,31.59a.13.13,0,0,1-.12.14H46.66c-.08,0-.11-.05-.11-.14V22.46c0-.06.06-.15.11-.15H47.8c.09,0,.12.06.12.15Z" transform="translate(-23.01 -4.1)"/></svg>