<svg id="Layer_1" data-name="Layer 1" xmlns="http://www.w3.org/2000/svg" viewBox="0 0 500 228.72"><defs><style>.cls-1{fill:#ff4a00;}</style></defs><title>zapier</title><path class="cls-1" d="M300,99.59H287.57A22.56,22.56,0,0,1,287,96a39.7,39.7,0,0,1,0-7.86,22.61,22.61,0,0,1,.57-3.54h31.06V183a46,46,0,0,1-4.7.57c-1.56.12-3.13.18-4.7.19s-3-.07-4.5-.19A46.17,46.17,0,0,1,300,183V99.59h0Zm108.13,24.73a36.19,36.19,0,0,0-1.44-10.26,26.38,26.38,0,0,0-4.21-8.53,20.64,20.64,0,0,0-7.1-5.84,22.31,22.31,0,0,0-10.26-2.21q-11.68,0-17.92,7.1t-7.58,19.74Zm-48.7,14.19q.39,16.11,8.34,23.58t23.49,7.48a70.41,70.41,0,0,0,25.88-4.8,28.92,28.92,0,0,1,2.49,7,45.84,45.84,0,0,1,1.15,8.15,64.44,64.44,0,0,1-13.9,4,96.93,96.93,0,0,1-16.77,1.34q-13.42,0-23-3.74a40.43,40.43,0,0,1-24.92-26.65,68.79,68.79,0,0,1-2.88-20.42,72.51,72.51,0,0,1,2.78-20.42,46,46,0,0,1,8.53-16.48,41.1,41.1,0,0,1,14.48-11.12q8.72-4.12,20.61-4.13a43.13,43.13,0,0,1,17.83,3.45,36.29,36.29,0,0,1,12.84,9.49,41.25,41.25,0,0,1,7.86,14.38A58.83,58.83,0,0,1,427,127.77c0,1.79-.07,3.68-.2,5.66-.1,1.69-.23,3.38-.38,5.08Zm88.39-53.87c1.34-.25,2.68-.44,4-.58s2.62-.19,4-.19,2.81.07,4.21.19a30,30,0,0,1,3.84.58c.38,1.91.76,4.44,1.14,7.57a65.86,65.86,0,0,1,.58,8,39.89,39.89,0,0,1,10.64-11.31q6.62-4.78,17-4.79c1,0,2.07,0,3.16.1.93,0,1.86.14,2.78.28a32.79,32.79,0,0,1,.58,3.65c.12,1.27.19,2.62.19,4a42.1,42.1,0,0,1-.29,4.79c-.18,1.61-.41,3.2-.67,4.79a13.54,13.54,0,0,0-3.17-.38h-2.59a33.47,33.47,0,0,0-9.87,1.44,20.61,20.61,0,0,0-8.43,5.08,25.16,25.16,0,0,0-5.94,10q-2.22,6.33-2.21,16.3V183a46.37,46.37,0,0,1-4.7.57c-1.72.13-3.29.19-4.69.19-1.57,0-3.14-.07-4.7-.19s-3.27-.31-4.89-.57V84.64ZM313.3,32.12a19.07,19.07,0,0,1-1.22,6.72,19.07,19.07,0,0,1-6.72,1.22h0a19,19,0,0,1-6.72-1.22,19.08,19.08,0,0,1-1.23-6.72v0a19.17,19.17,0,0,1,1.22-6.72,18.86,18.86,0,0,1,6.73-1.22h0a19,19,0,0,1,6.72,1.22,18.81,18.81,0,0,1,1.22,6.72v0Zm23.43-5.32H318.15l13.13-13.14a32,32,0,0,0-7.5-7.5L310.65,19.3V.72a32.37,32.37,0,0,0-5.29-.44h0A31.74,31.74,0,0,0,300,.72V19.3L286.9,6.16a31,31,0,0,0-4.06,3.44h0a31.75,31.75,0,0,0-3.43,4.06L292.54,26.8H274s-.44,3.49-.44,5.29v0a31.82,31.82,0,0,0,.44,5.29h18.58L279.4,50.54a32,32,0,0,0,7.5,7.5L300,44.91V63.49a31.7,31.7,0,0,0,5.28.44h.05a32.34,32.34,0,0,0,5.28-.44V44.91l13.13,13.14a31.79,31.79,0,0,0,4.07-3.44h0a33.18,33.18,0,0,0,3.43-4.06L318.15,37.41h18.58a32.81,32.81,0,0,0,.44-5.28v-.05a32.25,32.25,0,0,0-.44-5.28ZM0,180.31,51.76,99.78H6.13a47.2,47.2,0,0,1-.57-7.67,46.07,46.07,0,0,1,.58-7.48H80l1,2.5L28.76,167.84H77.65a53.47,53.47,0,0,1,.57,7.86,44.71,44.71,0,0,1-.57,7.29H1L0,180.3Zm149.35-43.53q-2.88-.37-7.29-.76c-2.94-.26-5.43-.38-7.47-.38q-11.9,0-18.12,4.41t-6.23,13.42q0,5.75,2.11,9a14.48,14.48,0,0,0,5.27,5,18.33,18.33,0,0,0,7,2.11,72.16,72.16,0,0,0,7.29.38,89.65,89.65,0,0,0,9.11-.48,54.94,54.94,0,0,0,8.34-1.43V136.78Zm0-18.59q0-11.31-5.75-15.72t-16.68-4.41a71.06,71.06,0,0,0-12.56,1A94.87,94.87,0,0,0,103,101.89a29.84,29.84,0,0,1-3.64-15.15,88,88,0,0,1,14.37-3.25,104.26,104.26,0,0,1,15.15-1.16q19.17,0,29.14,8.73t10,27.89V180.5q-6.72,1.53-16.3,3.16a116.44,116.44,0,0,1-19.55,1.63,76.66,76.66,0,0,1-17-1.72A34.7,34.7,0,0,1,102.28,178a25.71,25.71,0,0,1-8.15-9.77,32.75,32.75,0,0,1-2.88-14.38A29.31,29.31,0,0,1,103.72,129a40.66,40.66,0,0,1,13.22-6.13,59.94,59.94,0,0,1,15.72-2q6.14,0,10.07.29c2.62.19,4.82.42,6.61.67v-3.64Zm58.28,48.69a37.1,37.1,0,0,0,7.47,1.92,70.19,70.19,0,0,0,10,.58,35,35,0,0,0,12.65-2.21,25.13,25.13,0,0,0,9.88-6.8,33.26,33.26,0,0,0,6.52-11.61,51.45,51.45,0,0,0,2.39-16.58q0-15.33-5.65-24.35t-18.5-9a25,25,0,0,0-9.2,1.73,22.79,22.79,0,0,0-7.87,5.18,25.5,25.5,0,0,0-5.55,8.72A33.7,33.7,0,0,0,207.63,127v39.87Zm-19-82.25q1.95-.37,3.93-.57c1.37-.13,2.74-.19,4.12-.19s2.61.07,4,.19a37.55,37.55,0,0,1,4,.58,11.52,11.52,0,0,1,.48,2.39c.19,1.35.38,2.78.57,4.32s.39,3,.58,4.41.29,2.3.29,2.68a38.9,38.9,0,0,1,4.6-5.94,31,31,0,0,1,6.42-5.18,33.46,33.46,0,0,1,8.44-3.64,38.1,38.1,0,0,1,10.44-1.35,43.67,43.67,0,0,1,16,2.88,32,32,0,0,1,12.65,8.92,42.86,42.86,0,0,1,8.25,15.33,72.51,72.51,0,0,1,3,22q0,25.31-13.71,39.59t-38.82,14.28a65.5,65.5,0,0,1-8.63-.58,50.12,50.12,0,0,1-7.67-1.53v45c-1.62.27-3.25.46-4.88.58s-3.3.19-4.7.19c-1.57,0-3.14-.07-4.7-.19a43.7,43.7,0,0,1-4.7-.58V84.64Z" transform="translate(0 -0.28)"/></svg>