<svg id="Layer_1" data-name="Layer 1" xmlns="http://www.w3.org/2000/svg" viewBox="0 0 100.98 22.04"><defs><style>.cls-1{fill:#03363d;}</style></defs><title>zendesk</title><path class="cls-1" d="M88.17,34.64a3.35,3.35,0,0,0,2.38-.92L91.73,35a4.65,4.65,0,0,1-3.54,1.4,4.5,4.5,0,1,1-.39-9h.13c2.86,0,4.48,2.17,4.33,5.18H85.51a2.44,2.44,0,0,0,2.66,2m2.06-3.48a2.16,2.16,0,0,0-2.28-2,2.32,2.32,0,0,0-2.44,2ZM43.86,34.54l5.19-5.27H44V27.6h7.48v1.7l-5.19,5.28h5.26v1.65H43.86Zm13.5.1a3.35,3.35,0,0,0,2.38-.92L60.92,35a4.65,4.65,0,0,1-3.54,1.4,4.5,4.5,0,1,1-.39-9h.13c2.86,0,4.48,2.17,4.34,5.18H54.71a2.43,2.43,0,0,0,2.65,2m2.06-3.48a2.16,2.16,0,0,0-2.28-2,2.32,2.32,0,0,0-2.44,2Zm13.25.74A4.31,4.31,0,0,1,77,27.41a3.73,3.73,0,0,1,2.87,1.3V23.62h1.84v12.6H79.87V35A3.67,3.67,0,0,1,77,36.38a4.34,4.34,0,0,1-4.31-4.48m7.31,0a2.74,2.74,0,1,0-2.74,2.81A2.74,2.74,0,0,0,80,31.88m13.48,2.5,1.66-.86a2.46,2.46,0,0,0,2.22,1.26c1,0,1.57-.53,1.57-1.14s-1-.84-2.09-1.07c-1.47-.3-3-.79-3-2.57,0-1.36,1.3-2.62,3.34-2.6a4,4,0,0,1,3.49,1.67l-1.54.85a2.25,2.25,0,0,0-1.94-1c-1,0-1.5.49-1.5,1s.79.79,2,1.07c1.42.3,3,.78,3,2.57,0,1.2-1,2.79-3.49,2.78a4.08,4.08,0,0,1-3.8-2m12.27-2L104.27,34v2.24h-1.84V23.62h1.84v8.25l3.9-4.28h2.23L107,31.29l3.47,4.93h-2.08Zm-38.61-5a3.74,3.74,0,0,0-4,3.76v5H65V31.4a2.05,2.05,0,0,1,2.21-2.26c1.38,0,2.08.85,2.08,2.26v4.8h1.86v-5a3.75,3.75,0,0,0-4-3.76M22.94,24.8V41H9.51Zm0-5.82A6.72,6.72,0,1,1,9.51,19Zm2.21,22a6.72,6.72,0,1,1,13.44,0Zm0-5.82V19H38.59Z" transform="translate(-9.51 -18.98)"/></svg>