<svg id="GreenflyAILogomark" xmlns="http://www.w3.org/2000/svg" viewBox="0 0 1162.07 208.34"><defs><style>.cls-1{fill:#279090;}</style></defs><title>GreenflyAI_wordmark_green</title><path class="cls-1" d="M287.59,89.88v55.68c-15.12,12.06-36.39,20.17-57,20.17-44.51,0-80-34.42-80-77.6S186.32,11,231.48,11A86.89,86.89,0,0,1,288,32L278,45.12a70.54,70.54,0,0,0-46.48-17.76c-35.07,0-63.13,27-63.13,60.73,0,34,28.28,60.94,63.35,60.94,13.81,0,28.5-4.82,40.34-12.93V89.88Z" transform="translate(-0.01 0)"/><path class="cls-1" d="M328.37,75c7.67-16.88,21.92-26.08,41.43-26.3V66c-24.33-.43-39.46,14.69-41.43,37.49v61.38h-17.1V49.33h17.1Z" transform="translate(-0.01 0)"/><path class="cls-1" d="M486.87,113.77H392.6c3.07,22.58,19.51,36.83,41.87,36.83,14.25,0,26.75-5,35.73-14.46l9.43,10.08c-11,12.28-27.18,19.29-46.47,19.29-34,0-57.44-23.89-57.44-58.31s23.67-58.31,57.22-58.31C470.2,48.67,488.62,74.53,486.87,113.77Zm-15.34-14c-1.1-22.14-16-36.17-38.58-36.17-21.93,0-37.71,14.25-40.34,36.17Z" transform="translate(-0.01 0)"/><path class="cls-1" d="M615.77,113.77H521.5c3.07,22.58,19.51,36.83,41.87,36.83,14.25,0,26.75-5,35.74-14.46l9.42,10.08c-11,12.28-27.18,19.29-46.47,19.29-34,0-57.44-23.89-57.44-58.31s23.68-58.31,57.22-58.31C599.11,48.67,617.52,74.53,615.77,113.77Zm-15.35-14c-1.09-22.14-16-36.17-38.58-36.17-21.92,0-37.71,14.25-40.34,36.17Z" transform="translate(-0.01 0)"/><path class="cls-1" d="M739.87,93.61v71.24h-17.1V98.21c0-20.39-12.28-32.44-32.67-32.44-22.8.21-36.83,15.12-38.8,37v62H634.2V49.33h17.1V74.76C659.41,57.23,675,48.9,696,48.68,723.62,48.67,739.87,65.77,739.87,93.61Z" transform="translate(-0.01 0)"/><path class="cls-1" d="M770.54,37.27c0-21.71,15.78-37.49,37.05-37.27,7.45.22,15.34,2.19,21,5.48l-.44,16a33.33,33.33,0,0,0-17.5-6.15c-13.15-.22-23.23,10.09-23.23,24.34V52.16h33.1V66h-33.1v98.87H770.54V66H755.63V52.17h14.91ZM858,164.85H840.87V2.19H858Z" transform="translate(-0.01 0)"/><path class="cls-1" d="M932.1,181.33c-7.23,17.75-19.29,27-34.64,27a36.68,36.68,0,0,1-24.33-8.55l7.23-14.25A27.31,27.31,0,0,0,896.59,191c9,0,16.44-5.48,21-16.22l4.82-10.74L874.66,49.33h18L931,144.69l36.6-95.36h17.53Z" transform="translate(-0.01 0)"/><path class="cls-1" d="M1016.06,121.23l-19.73,43.62H986.25l69.49-153.23h9.87l70.15,153.23h-10.09l-19.94-43.62Zm44.51-99.09L1020,112h81.55Z" transform="translate(-0.01 0)"/><path class="cls-1" d="M1152.87,164.85V11.62h9.21V164.85Z" transform="translate(-0.01 0)"/><g id="GreenflyAILogomark-2"><path class="cls-1" d="M63.38,131.15a62.94,62.94,0,0,0,15.18,25.26s8.09,9.39,20.77,9.39h1.21a18.87,18.87,0,0,0,14.81-7c12.43-14.47,11.22-39.16-3.65-73.47A160.14,160.14,0,0,0,91.53,51.84l-.31-.51a67.63,67.63,0,0,0-7.93-9.06A21.78,21.78,0,0,0,84,37.45C84.18,23.45,75.3,11,61.92,11S39.69,23.33,39.87,37.42a21.78,21.78,0,0,0,.73,4.82,66.33,66.33,0,0,0-7.93,9.06l-.32.51A159.5,159.5,0,0,0,12.16,85.33c-14.87,34.34-16.1,59.07-3.67,73.53a18.85,18.85,0,0,0,14.8,7h1.24c8.18-.48,15.79-5.36,20.77-9.35C51,152,56.82,143,60.46,131.17c.12-.39.73-1.45,1.46-1.45S63.26,130.77,63.38,131.15ZM19.05,88.33a150.42,150.42,0,0,1,19.21-32l.35-.51c1.08-1.4,2.51-3.24,4.09-5a1.69,1.69,0,0,1,2.39-.13l.18.19c.35.41.76.79,1.14,1.18L34.61,93.25,12.29,106.13Q15.23,97.07,19.05,88.33Zm-2.48,68a13.52,13.52,0,0,1-2.41-2.25Q3.71,141.86,9.5,116.38l22.2-12.84Zm24-5.55c-3.36,2.7-10,7.33-16.49,7.71a3.84,3.84,0,0,0-.48,0L39,104.81,53.51,130c-2.25,8.24-6,15.18-12.9,20.73ZM55.92,117.3c-.07.57-.16,1.17-.23,1.77L41.87,94.91,53,56.19c.76.28,1.53.57,2.35.79a1.82,1.82,0,0,1,1.27,1.4C59,75.78,58.81,95,56,117.23ZM78.56,51a1.68,1.68,0,0,1,2.36-.25,1.8,1.8,0,0,1,.2.19c1.59,1.77,3,3.61,4.1,5l.34.51a150.86,150.86,0,0,1,19.31,31.92,189,189,0,0,1,6.75,17.85L89.3,93.31,77.5,52.12c.37-.44.75-.79,1.1-1.23ZM67.87,117.23c-2.85-22.2-3-41.45-.6-58.85A1.82,1.82,0,0,1,68.54,57c.82-.22,1.58-.51,2.34-.79L82,94.91,68.09,119A12.78,12.78,0,0,0,67.87,117.23Zm31.84,41.19c-6.5-.38-13.13-5-16.49-7.71-6.92-5.55-10.66-12.49-12.94-20.77l14.59-25.17,15.38,53.68a2.1,2.1,0,0,0-.5,0Zm10-4.41a12.55,12.55,0,0,1-2.41,2.25L92.17,103.47l22.19,12.86q5.81,25.42-4.66,37.68Z" transform="translate(-0.01 0)"/></g></svg>