<svg id="GreenflyAILogomark" xmlns="http://www.w3.org/2000/svg" viewBox="0 0 123.84 154.87"><defs><style>.cls-1{fill:#fff;}</style></defs><title>GreenflyAI_logomark_white</title><g id="GreenflyAILogomark-2" data-name="GreenflyAILogomark"><path class="cls-1" d="M236.51,408.82a62.94,62.94,0,0,0,15.18,25.26s8.09,9.39,20.77,9.39c.38,0,.8,0,1.21,0a18.87,18.87,0,0,0,14.81-7C300.91,422,299.7,397.31,284.83,363a160.19,160.19,0,0,0-20.17-33.49l-.31-.51a67.12,67.12,0,0,0-7.93-9.06,21.92,21.92,0,0,0,.73-4.82c.16-14-8.72-26.42-22.1-26.42S212.82,301,213,315.09a21.92,21.92,0,0,0,.73,4.82,66.43,66.43,0,0,0-7.93,9.06l-.32.51A159.34,159.34,0,0,0,185.29,363c-14.87,34.34-16.1,59.07-3.67,73.53a18.85,18.85,0,0,0,14.8,7c.42,0,.86,0,1.24,0,8.18-.48,15.79-5.36,20.77-9.35,5.65-4.54,11.52-13.55,15.16-25.34.12-.39.73-1.45,1.46-1.45S236.39,408.44,236.51,408.82ZM192.18,366A150.34,150.34,0,0,1,211.39,334l.35-.51c1.08-1.4,2.51-3.24,4.09-5a1.69,1.69,0,0,1,2.57.06c.35.41.76.79,1.14,1.18l-11.8,41.19L185.42,383.8A190.51,190.51,0,0,1,192.18,366Zm-2.48,68a13.29,13.29,0,0,1-2.41-2.25q-10.46-12.23-4.66-37.7l22.2-12.84Zm24-5.55c-3.36,2.7-10,7.33-16.49,7.71a2.58,2.58,0,0,0-.48,0l15.38-53.68,14.53,25.17C224.39,415.89,220.65,422.83,213.74,428.38Zm15.35-33.48c-.07.57-.16,1.17-.23,1.77L215,372.58l11.1-38.72c.76.28,1.53.57,2.35.79a1.83,1.83,0,0,1,1.27,1.4C232.13,353.45,231.94,372.7,229.09,394.9Zm22.64-66.34a1.68,1.68,0,0,1,2.56-.06c1.59,1.77,3,3.61,4.1,5l.34.51A150.82,150.82,0,0,1,278,366a187.53,187.53,0,0,1,6.75,17.85l-22.32-12.87-11.8-41.19C251,329.35,251.38,329,251.73,328.56ZM241,394.9c-2.85-22.2-3-41.45-.6-58.85a1.81,1.81,0,0,1,1.27-1.4c.82-.22,1.58-.51,2.34-.79l11.1,38.72-13.89,24.09C241.2,396.07,241.1,395.47,241,394.9Zm31.84,41.19c-6.5-.38-13.13-5-16.49-7.71-6.92-5.55-10.66-12.49-12.94-20.77L258,382.44l15.38,53.68A2.53,2.53,0,0,0,272.88,436.09Zm9.95-4.41a13,13,0,0,1-2.41,2.25L265.3,381.14,287.49,394Q293.3,419.42,282.83,431.68Z" transform="translate(-173.13 -288.67)"/></g></svg>