<?xml version="1.0" standalone="no"?>
<!DOCTYPE svg PUBLIC "-//W3C//DTD SVG 20010904//EN"
 "http://www.w3.org/TR/2001/REC-SVG-20010904/DTD/svg10.dtd">
<svg version="1.0" xmlns="http://www.w3.org/2000/svg"
 width="2991.000000pt" height="2991.000000pt" viewBox="0 0 2991.000000 2991.000000"
 preserveAspectRatio="xMidYMid meet">
<metadata>
Created by potrace 1.11, written by Peter Selinger 2001-2013
</metadata>
<g transform="translate(0.000000,2991.000000) scale(0.100000,-0.100000)"
fill="#000000" stroke="none">
<path d="M14728 29905 c-2 -1 -48 -5 -103 -9 -55 -3 -111 -8 -125 -10 -14 -3
-47 -7 -75 -11 -53 -6 -203 -31 -245 -39 -14 -3 -50 -11 -80 -18 -30 -6 -57
-12 -60 -13 -87 -18 -195 -50 -350 -102 -563 -189 -1058 -501 -1500 -943 -178
-177 -210 -212 -311 -335 -164 -202 -272 -357 -434 -626 -137 -228 -309 -603
-421 -917 -40 -113 -145 -461 -158 -523 -3 -13 -18 -85 -35 -159 -17 -74 -32
-148 -35 -165 -7 -44 -15 -87 -20 -111 -2 -12 -7 -45 -11 -75 -4 -30 -8 -56
-10 -59 -1 -3 -6 -32 -9 -65 -4 -33 -9 -71 -11 -85 -5 -34 -16 -137 -20 -185
-16 -186 -19 -265 -20 -515 0 -244 6 -394 19 -467 2 -10 7 -40 10 -68 4 -27
10 -66 12 -85 11 -76 70 -351 90 -421 3 -11 -21 -40 -67 -85 -134 -128 -343
-340 -439 -444 -52 -57 -106 -116 -120 -131 -14 -15 -36 -40 -49 -56 -65 -76
-137 -159 -141 -163 -15 -13 -288 -349 -370 -455 -52 -66 -99 -125 -105 -131
-5 -7 -19 -24 -30 -39 -11 -16 -56 -73 -99 -129 -43 -56 -99 -132 -124 -171
-25 -38 -76 -108 -112 -155 -126 -162 -480 -636 -609 -815 -120 -167 -297
-416 -330 -465 -21 -30 -66 -95 -101 -145 -80 -114 -530 -784 -530 -790 0 -2
-17 -30 -39 -62 -97 -146 -371 -581 -485 -773 -12 -20 -73 -123 -137 -230
-190 -319 -443 -763 -586 -1030 -222 -413 -255 -478 -447 -865 -168 -338 -323
-663 -428 -898 -22 -51 -52 -117 -65 -147 -14 -30 -86 -197 -160 -370 -74
-173 -138 -324 -143 -335 -5 -11 -25 -60 -45 -110 -20 -49 -42 -103 -49 -120
-34 -77 -314 -777 -320 -800 -2 -5 -8 -21 -13 -35 -25 -61 -233 -617 -233
-623 0 -3 -5 -18 -12 -34 -6 -15 -12 -32 -14 -38 -1 -5 -17 -48 -34 -95 -70
-187 -362 -1043 -375 -1100 -2 -8 -15 -51 -29 -95 -51 -164 -119 -384 -151
-495 -19 -63 -45 -153 -58 -200 -29 -98 -146 -523 -153 -551 -5 -23 -12 -53
-19 -76 -34 -124 -174 -703 -191 -786 -2 -10 -5 -26 -8 -35 -3 -9 -8 -30 -11
-47 -2 -16 -7 -39 -9 -50 -9 -40 -75 -361 -80 -385 -2 -14 -16 -84 -30 -156
-14 -73 -28 -147 -30 -165 -3 -19 -7 -45 -10 -59 -8 -40 -64 -379 -72 -440 -4
-30 -8 -57 -9 -60 -1 -4 -11 -72 -20 -140 -2 -14 -6 -43 -9 -65 -5 -39 -12
-88 -22 -170 -2 -22 -6 -56 -9 -75 -2 -19 -7 -60 -10 -90 -9 -79 -15 -140 -20
-180 -3 -19 -7 -64 -10 -100 -9 -116 -16 -204 -20 -230 -2 -14 -7 -81 -10
-150 -4 -69 -9 -141 -10 -160 -23 -258 -23 -1189 0 -1389 2 -20 7 -85 10 -146
4 -60 8 -116 10 -125 1 -8 6 -53 10 -100 3 -47 8 -92 10 -100 2 -8 7 -44 10
-80 4 -36 8 -76 10 -90 2 -14 6 -47 9 -74 11 -82 35 -237 51 -326 9 -47 18
-101 21 -120 2 -19 7 -42 9 -50 2 -8 7 -31 10 -50 10 -59 65 -302 81 -356 8
-28 16 -60 18 -70 6 -28 36 -144 46 -179 134 -436 190 -593 321 -895 191 -442
456 -900 736 -1272 103 -137 232 -297 284 -353 15 -16 47 -52 71 -79 128 -144
359 -359 523 -486 487 -377 1003 -605 1610 -712 39 -6 73 -11 77 -10 4 1 29
-2 55 -7 171 -32 788 -36 983 -6 14 2 48 7 75 10 478 60 1094 238 1565 452 36
17 101 46 145 66 138 62 535 269 636 332 9 5 32 18 50 29 94 51 575 357 614
389 11 9 135 97 175 124 102 70 429 321 575 442 128 107 168 144 370 346 181
182 222 225 305 324 25 30 52 61 61 70 59 61 326 408 457 596 50 72 96 135
101 142 6 7 11 15 11 18 0 3 19 33 43 68 69 98 308 488 380 617 444 802 738
1473 1038 2371 114 343 134 388 200 463 91 103 182 125 273 65 63 -42 168
-184 181 -246 12 -59 147 -460 218 -648 44 -118 138 -353 195 -490 115 -274
369 -794 504 -1030 16 -27 42 -75 58 -105 17 -30 34 -62 39 -70 5 -8 65 -107
132 -220 284 -475 660 -1011 1012 -1440 58 -71 204 -247 212 -256 5 -6 35 -40
65 -75 665 -767 1124 -1174 1755 -1556 439 -266 945 -489 1381 -609 115 -31
243 -63 320 -79 44 -9 88 -19 99 -21 50 -10 256 -43 310 -49 33 -4 67 -9 76
-10 9 -2 52 -6 95 -10 43 -3 93 -8 110 -10 48 -7 472 -19 644 -19 146 1 311 9
386 19 64 9 99 14 149 20 28 4 124 22 213 41 1024 218 1867 860 2578 1964 385
599 658 1241 863 2035 25 97 68 287 76 335 3 19 10 53 15 75 11 50 48 257 55
310 2 22 7 51 9 65 3 14 9 59 15 100 6 41 13 95 17 120 3 25 7 61 9 80 2 19 8
85 14 145 21 203 28 296 36 445 3 58 8 141 10 185 6 93 6 806 1 910 -2 39 -7
135 -11 215 -4 80 -8 161 -10 180 -2 19 -6 80 -10 135 -3 55 -8 111 -10 125
-2 14 -6 63 -10 110 -4 47 -8 96 -10 110 -2 14 -6 54 -10 90 -3 36 -10 99 -15
140 -5 41 -12 100 -15 130 -3 30 -8 62 -10 70 -2 8 -7 44 -10 80 -3 36 -8 72
-10 80 -2 8 -7 38 -10 65 -3 28 -7 61 -10 75 -2 14 -7 43 -10 65 -3 22 -12 83
-21 135 -8 52 -17 109 -20 125 -2 17 -6 41 -9 55 -3 14 -7 41 -10 60 -7 44
-13 78 -20 110 -5 24 -11 59 -19 110 -2 14 -18 97 -36 185 -17 88 -34 171 -36
185 -2 14 -7 36 -10 50 -3 14 -8 36 -11 50 -8 44 -60 278 -67 305 -2 6 -6 28
-10 50 -5 22 -17 76 -28 120 -11 44 -22 90 -24 101 -3 16 -94 379 -138 554
-28 108 -133 493 -147 535 -5 17 -41 138 -80 270 -114 388 -278 897 -436 1350
-61 176 -212 595 -222 620 -5 11 -57 148 -116 305 -59 157 -114 301 -122 320
-8 19 -19 44 -23 55 -173 436 -362 900 -415 1020 -7 17 -39 90 -70 164 -59
140 -146 339 -197 451 -17 36 -47 103 -68 150 -37 84 -76 167 -172 370 -87
182 -344 699 -426 855 -147 280 -205 390 -244 458 -21 38 -38 70 -38 72 0 2
-13 26 -28 52 -16 26 -46 80 -67 118 -124 227 -422 745 -488 848 -20 31 -37
59 -37 61 0 9 -315 518 -458 741 -104 162 -138 213 -314 480 -291 439 -574
845 -856 1230 -24 33 -52 71 -62 85 -10 14 -121 161 -246 328 -126 166 -263
351 -304 410 -41 60 -113 158 -160 218 -130 168 -378 482 -404 512 -13 15 -81
97 -152 182 -71 85 -138 165 -149 176 -11 12 -51 57 -90 100 -140 159 -400
425 -551 564 -32 30 -59 60 -59 65 1 6 9 44 18 85 26 108 35 151 42 185 3 17
7 41 10 55 31 159 42 239 61 440 11 123 6 477 -11 695 -12 162 -15 190 -30
305 -3 19 -7 55 -10 80 -5 41 -48 292 -60 350 -2 14 -7 39 -10 55 -68 347
-214 804 -370 1155 -40 89 -187 382 -220 438 -5 9 -25 44 -44 77 -116 202
-331 505 -495 695 -91 106 -307 326 -402 410 -28 25 -66 59 -85 76 -54 48
-276 216 -359 271 -208 138 -506 296 -723 381 -123 48 -353 124 -447 147 -192
47 -422 88 -555 100 -38 4 -81 9 -95 12 -27 5 -566 13 -572 8z m-3148 -7597
c49 -15 134 -73 163 -111 13 -18 67 -74 119 -125 l95 -94 -24 -81 c-14 -45
-26 -90 -29 -99 -2 -10 -6 -26 -8 -35 -3 -10 -51 -175 -107 -368 -55 -192
-107 -372 -114 -400 -7 -27 -84 -295 -170 -595 -500 -1741 -564 -1964 -634
-2212 -16 -57 -75 -263 -131 -458 -56 -195 -106 -368 -110 -385 -4 -16 -64
-226 -133 -465 -68 -239 -127 -444 -130 -455 -3 -11 -24 -83 -46 -160 -65
-221 -113 -387 -116 -404 -2 -9 -13 -47 -25 -86 -20 -68 -37 -124 -44 -155 -3
-8 -16 -55 -31 -105 -14 -49 -28 -97 -30 -105 -3 -8 -9 -31 -14 -50 -14 -53
-91 -321 -101 -355 -12 -36 -69 -238 -80 -280 -45 -173 -203 -701 -213 -707
-7 -5 -25 -16 -42 -25 -16 -8 -66 -37 -110 -63 -44 -26 -177 -102 -295 -170
-118 -68 -311 -179 -427 -247 -117 -68 -217 -123 -223 -123 -5 0 -10 -4 -10
-10 0 -5 -4 -10 -9 -10 -5 0 -132 -71 -282 -158 -323 -187 -729 -421 -779
-450 -19 -11 -91 -52 -160 -92 -69 -40 -138 -80 -155 -90 -75 -43 -211 -122
-225 -130 -17 -11 -450 -259 -519 -298 -68 -39 -383 -221 -401 -233 -12 -7
-389 -224 -558 -320 -18 -11 -44 -27 -58 -36 -14 -8 -28 -13 -31 -9 -15 14
293 914 519 1516 61 162 115 306 121 320 5 14 11 30 13 35 3 12 281 712 294
740 5 11 46 108 90 215 44 107 85 204 90 215 5 11 63 146 128 300 146 340 263
601 420 930 162 340 507 1009 653 1268 22 38 39 70 39 72 0 2 15 30 34 62 18
32 45 79 60 106 47 85 78 140 107 189 16 27 29 51 29 53 0 2 20 37 44 77 24
40 94 159 156 263 147 247 304 504 420 685 50 80 104 165 119 189 35 58 533
807 595 896 27 39 86 122 130 185 172 247 473 661 675 930 119 157 211 280
380 505 61 82 382 488 442 560 255 304 334 389 389 419 78 42 165 51 250 24z
m6948 1 c56 -18 112 -61 173 -130 29 -34 59 -67 64 -73 62 -66 386 -461 505
-616 30 -39 63 -81 73 -93 10 -12 49 -62 85 -112 37 -49 189 -251 337 -450
149 -198 311 -416 360 -485 49 -69 93 -129 98 -135 9 -11 234 -328 309 -436
25 -36 103 -150 174 -255 70 -104 132 -190 136 -192 4 -2 8 -7 8 -12 0 -5 55
-92 123 -194 224 -341 418 -646 597 -941 53 -88 115 -191 138 -229 23 -37 42
-70 42 -72 0 -3 17 -33 39 -67 96 -155 407 -709 576 -1027 103 -194 450 -881
517 -1025 26 -55 70 -149 98 -210 74 -157 208 -459 280 -627 34 -78 67 -156
75 -173 35 -78 278 -667 367 -890 210 -526 341 -876 551 -1465 48 -133 248
-731 272 -813 l15 -49 -23 15 c-60 39 -548 317 -557 317 -6 0 -10 5 -10 10 0
6 -4 10 -9 10 -5 0 -58 29 -117 63 -161 94 -363 211 -414 239 -61 34 -793 457
-905 523 -78 46 -654 377 -742 426 -17 10 -50 29 -72 43 -22 15 -43 26 -46 26
-3 0 -31 16 -61 35 -30 19 -56 35 -58 35 -2 0 -66 37 -142 81 -77 45 -161 94
-189 109 -27 15 -106 60 -175 100 -69 40 -138 81 -155 90 -16 10 -118 68 -225
130 -107 62 -243 141 -301 174 l-107 61 -367 1285 c-202 707 -374 1305 -381
1330 -11 36 -146 509 -167 585 -3 11 -22 76 -42 145 -20 69 -43 150 -51 180
-8 30 -21 75 -28 100 -32 101 -57 187 -60 206 -2 12 -14 52 -26 90 -12 38 -23
76 -25 84 -1 8 -17 65 -35 125 -18 61 -36 124 -40 140 -9 37 -356 1248 -369
1290 -6 17 -73 253 -151 525 -78 272 -229 800 -336 1172 -107 373 -194 682
-194 688 0 15 249 267 295 300 73 50 188 67 273 39z m-5254 -1149 c70 -30 372
-130 393 -130 19 0 104 -48 139 -77 39 -34 85 -107 99 -157 13 -46 19 -78 29
-163 2 -15 7 -48 10 -73 4 -25 8 -58 10 -75 18 -148 38 -306 42 -335 3 -19 7
-53 9 -75 2 -22 6 -60 9 -85 9 -74 25 -211 31 -275 3 -33 8 -73 10 -90 3 -16
7 -59 10 -95 3 -36 7 -85 10 -110 6 -59 14 -136 20 -219 3 -36 7 -77 10 -91 2
-14 6 -65 10 -115 3 -49 8 -108 10 -130 6 -52 16 -183 20 -264 2 -35 6 -96 10
-135 7 -88 12 -172 20 -296 3 -52 7 -126 9 -165 64 -1012 77 -2576 31 -3720
-16 -396 -24 -592 -30 -685 -2 -36 -7 -126 -10 -200 -4 -74 -8 -151 -10 -170
-2 -19 -7 -93 -10 -165 -4 -71 -8 -146 -10 -165 -2 -19 -6 -84 -10 -145 -4
-60 -8 -126 -10 -145 -2 -19 -6 -80 -10 -135 -4 -55 -8 -113 -10 -130 -2 -16
-7 -74 -10 -130 -3 -55 -8 -116 -10 -135 -2 -19 -7 -69 -10 -110 -3 -41 -8
-95 -10 -120 -2 -25 -7 -79 -10 -120 -3 -41 -8 -91 -10 -110 -2 -19 -7 -69
-10 -110 -4 -41 -8 -86 -10 -100 -2 -14 -6 -59 -10 -100 -6 -73 -12 -135 -21
-215 -2 -22 -6 -65 -8 -96 -3 -31 -7 -74 -10 -95 -4 -37 -7 -60 -22 -209 -3
-33 -7 -71 -9 -85 -7 -55 -16 -127 -20 -170 -4 -45 -12 -118 -19 -175 -3 -16
-8 -61 -12 -100 -4 -38 -8 -77 -9 -85 -1 -8 -5 -42 -9 -75 -8 -69 -11 -89 -25
-200 -5 -44 -12 -101 -15 -127 -6 -48 -12 -100 -21 -168 -4 -31 -16 -128 -29
-230 -8 -65 -19 -145 -22 -160 -1 -8 -3 -26 -3 -40 -1 -23 -3 -22 -25 15 -14
22 -31 53 -40 68 -17 31 -185 323 -283 490 -35 60 -63 113 -63 118 0 5 -4 9
-10 9 -5 0 -10 4 -10 10 0 5 -92 169 -204 362 -112 194 -213 369 -224 388 -33
59 -465 808 -527 915 -32 55 -67 116 -78 135 -10 19 -52 91 -92 160 -40 69
-82 141 -92 160 -11 19 -80 139 -153 265 -73 127 -148 257 -167 290 -19 33
-38 67 -43 75 -27 43 -210 362 -210 366 0 3 -15 28 -33 57 -18 29 -40 66 -49
82 -8 17 -97 172 -197 345 l-182 314 20 71 c45 163 162 571 222 775 10 36 85
295 165 575 80 281 175 611 210 735 36 124 67 232 69 240 8 32 126 447 136
475 12 38 100 343 104 364 2 9 57 203 123 431 66 228 122 424 125 435 3 11 12
43 20 70 18 58 85 296 97 340 5 17 20 71 35 120 15 50 29 97 30 105 8 35 115
401 119 409 3 4 7 18 10 32 3 13 15 58 26 99 12 41 23 80 24 85 8 35 28 104
37 125 5 14 11 35 13 47 3 11 21 77 41 145 20 67 38 130 40 138 2 8 43 150 90
315 48 165 104 361 125 435 37 131 245 857 256 893 7 21 3 21 58 -3z m3434
-35 c6 -22 26 -96 46 -165 20 -69 38 -132 40 -140 2 -8 20 -71 41 -140 20 -69
38 -134 40 -144 3 -10 9 -33 15 -51 6 -18 12 -41 15 -51 3 -17 58 -208 100
-349 9 -27 17 -59 20 -70 3 -11 11 -42 19 -70 176 -609 278 -964 281 -978 2
-10 15 -55 28 -100 14 -45 27 -91 30 -102 2 -11 35 -123 71 -250 37 -126 69
-237 71 -245 2 -8 54 -188 115 -400 61 -212 113 -394 115 -404 3 -11 11 -40
19 -65 8 -25 16 -55 19 -66 3 -11 71 -249 152 -530 274 -955 528 -1840 546
-1905 10 -36 25 -87 33 -115 18 -64 65 -225 71 -245 2 -8 8 -31 13 -50 15 -58
185 -647 216 -747 11 -36 11 -45 0 -54 -8 -6 -14 -15 -14 -19 0 -5 -26 -53
-58 -107 -32 -54 -61 -105 -65 -113 -4 -8 -13 -24 -20 -35 -71 -119 -357 -616
-357 -621 0 -3 -8 -17 -19 -32 -10 -15 -140 -239 -289 -498 -149 -258 -278
-484 -289 -502 -38 -66 -269 -467 -288 -501 -11 -20 -39 -67 -62 -106 -22 -38
-50 -87 -62 -107 -25 -45 1 1 -306 -533 -136 -236 -256 -443 -265 -460 -114
-199 -293 -507 -331 -573 -27 -45 -49 -85 -49 -89 0 -4 -6 -14 -14 -22 -7 -9
-27 -41 -43 -71 -17 -30 -55 -97 -84 -148 l-54 -94 -7 47 c-4 26 -10 75 -14
109 -4 33 -8 68 -9 76 -1 8 -5 42 -9 75 -4 33 -9 71 -11 85 -9 58 -16 114 -35
275 -11 94 -22 186 -25 205 -6 51 -13 108 -19 165 -4 28 -9 70 -12 95 -3 25
-7 59 -8 75 -2 17 -6 57 -10 90 -4 33 -9 76 -11 95 -2 19 -6 58 -9 85 -10 87
-15 128 -21 200 -4 38 -8 77 -10 86 -2 9 -6 52 -10 95 -4 43 -9 86 -10 95 -2
8 -6 55 -10 105 -3 49 -8 96 -10 104 -2 8 -7 49 -10 90 -9 109 -16 195 -30
325 -2 22 -7 76 -10 120 -3 44 -8 98 -10 120 -3 22 -7 72 -10 110 -3 39 -7 93
-10 120 -2 28 -7 91 -10 140 -3 50 -8 106 -10 125 -3 19 -7 80 -10 135 -3 55
-8 118 -10 140 -2 22 -7 83 -10 135 -5 90 -9 146 -20 305 -2 39 -7 120 -10
180 -3 61 -8 139 -10 175 -2 36 -7 119 -10 185 -3 66 -8 163 -10 215 -3 52 -7
154 -10 225 -3 72 -7 184 -10 250 -23 579 -33 1745 -20 2315 12 501 23 824 40
1135 2 44 7 134 10 200 3 66 8 146 10 177 3 32 7 101 10 153 11 172 19 286 30
420 3 33 7 92 10 130 3 39 7 93 10 120 2 28 7 82 10 120 3 39 8 90 10 115 3
25 7 70 10 100 3 30 7 75 10 100 2 25 7 74 10 110 3 36 10 99 15 140 5 41 12
106 15 143 4 37 8 76 10 85 1 9 6 49 9 87 4 39 9 81 11 95 2 14 7 52 11 85 3
33 7 67 9 75 1 8 5 44 9 80 4 36 9 76 11 90 2 14 9 63 15 110 39 302 52 349
116 419 57 64 105 90 240 131 71 21 183 59 249 83 66 25 123 42 126 39 3 -4
11 -25 17 -47z m4277 -9185 c2 0 48 -26 102 -58 54 -32 148 -87 208 -122 61
-35 162 -94 225 -131 63 -37 233 -135 377 -218 143 -83 276 -159 295 -170 18
-11 55 -32 81 -46 27 -14 77 -44 113 -65 35 -22 67 -40 70 -40 3 0 18 -8 32
-19 15 -10 47 -29 72 -43 45 -25 277 -159 585 -338 318 -185 471 -273 505
-292 19 -11 121 -70 225 -131 105 -60 204 -118 220 -127 66 -38 244 -141 510
-295 337 -196 346 -201 413 -238 30 -16 57 -39 62 -51 8 -18 32 -119 46 -191
2 -11 8 -40 14 -65 5 -25 12 -56 14 -70 3 -14 16 -79 30 -145 30 -146 65 -325
70 -362 2 -16 18 -109 34 -208 26 -150 48 -293 77 -500 16 -119 40 -320 50
-425 3 -36 8 -81 10 -100 5 -43 15 -160 30 -375 27 -366 27 -1154 0 -1415 -2
-19 -6 -71 -9 -115 -4 -44 -8 -96 -10 -115 -3 -19 -7 -62 -11 -95 -3 -33 -8
-71 -10 -85 -2 -14 -6 -47 -10 -75 -3 -27 -10 -75 -15 -105 -5 -30 -12 -73
-15 -95 -3 -22 -10 -67 -16 -100 -6 -33 -13 -70 -15 -82 -14 -79 -31 -161 -59
-278 -14 -60 -28 -121 -31 -135 -3 -13 -25 -94 -50 -180 -153 -532 -374 -1025
-651 -1450 -70 -107 -277 -389 -319 -435 -11 -11 -41 -47 -69 -80 -104 -125
-358 -363 -430 -403 -19 -10 -27 13 -172 521 -84 293 -155 541 -157 552 -3 11
-5 21 -7 23 -1 1 -2 5 -3 10 -9 32 -30 108 -47 162 -23 79 -69 239 -74 260 -3
13 -99 345 -201 700 -14 47 -26 92 -28 100 -2 8 -55 191 -116 405 -62 215
-121 419 -131 455 -10 36 -59 207 -109 380 -50 173 -93 322 -95 330 -6 25
-265 933 -276 965 -10 30 -374 1303 -389 1360 -5 17 -25 86 -45 155 -20 69
-40 139 -45 155 -4 17 -15 55 -23 85 -15 55 -282 984 -592 2065 -92 319 -178
618 -190 665 -27 96 -211 737 -218 760 -24 72 -24 72 73 14 50 -30 93 -54 95
-54z m-11875 98 c0 -7 -210 -741 -317 -1108 -24 -85 -48 -168 -53 -185 -4 -16
-33 -120 -65 -230 -32 -110 -61 -213 -65 -230 -5 -16 -45 -156 -90 -310 -44
-154 -82 -287 -84 -295 -2 -8 -57 -197 -121 -420 -64 -223 -118 -412 -120
-420 -2 -8 -34 -118 -70 -245 -70 -245 -85 -297 -134 -470 -17 -60 -35 -124
-41 -140 -5 -17 -36 -125 -69 -240 -33 -116 -111 -390 -174 -610 -63 -220
-117 -409 -120 -420 -3 -11 -55 -193 -117 -405 -61 -212 -113 -392 -115 -400
-2 -8 -58 -206 -125 -440 -68 -234 -126 -438 -130 -455 -11 -39 -115 -400
-140 -485 -10 -36 -60 -209 -110 -385 -50 -176 -125 -437 -166 -580 -42 -143
-77 -267 -79 -275 -2 -8 -69 -244 -150 -525 -81 -280 -148 -517 -150 -525 -2
-8 -20 -71 -40 -140 -21 -69 -39 -132 -40 -140 -2 -8 -10 -35 -17 -59 l-13
-44 -70 54 c-184 141 -379 347 -579 614 -90 120 -223 316 -277 408 -19 33 -43
73 -53 90 -89 148 -217 412 -310 639 -51 125 -182 501 -192 551 -2 11 -8 34
-13 51 -11 34 -87 335 -95 376 -2 14 -14 71 -25 128 -24 119 -25 126 -46 257
-21 133 -23 142 -30 200 -3 28 -8 64 -10 80 -9 70 -16 131 -20 179 -6 68 -16
183 -20 226 -12 115 -19 370 -19 685 0 315 4 455 19 685 11 181 16 249 20 285
2 22 7 72 10 110 3 39 8 86 10 105 2 19 7 60 10 90 3 30 8 72 10 93 3 20 7 54
10 75 2 20 7 61 10 91 4 30 8 61 10 70 1 9 6 41 9 72 4 31 9 67 11 80 3 13 7
42 10 64 3 22 9 65 15 95 5 30 12 73 15 95 7 50 14 93 20 125 3 14 7 41 10 60
3 19 10 58 15 85 5 28 12 66 15 85 11 66 86 445 95 480 5 19 11 49 14 65 2 17
14 73 26 125 12 52 23 104 26 114 2 11 7 23 11 27 8 8 269 160 363 212 30 16
60 33 65 37 10 8 40 25 135 78 25 14 57 33 72 43 14 11 29 19 32 19 4 0 23 11
44 23 20 13 116 69 212 124 96 56 191 110 210 121 50 30 127 74 185 107 28 15
55 31 60 35 6 5 37 23 70 40 33 18 67 39 76 46 8 8 18 14 21 14 3 0 99 54 214
121 115 67 227 131 249 144 22 12 108 62 190 110 83 48 194 113 248 144 54 31
106 61 116 66 9 6 121 71 249 145 128 74 245 142 260 151 15 9 43 25 62 36 48
27 165 94 203 116 49 29 463 268 647 375 91 52 190 110 220 128 50 29 70 39
70 32z m1458 -304 c16 -27 40 -70 54 -95 14 -24 58 -100 98 -169 40 -69 84
-146 99 -171 14 -25 89 -155 166 -288 77 -133 149 -259 161 -279 11 -20 63
-111 116 -202 52 -91 129 -223 170 -295 41 -71 126 -218 188 -325 62 -107 124
-215 138 -240 14 -25 36 -62 49 -82 12 -21 23 -39 23 -42 0 -2 36 -64 79 -139
43 -74 90 -154 104 -178 13 -24 100 -174 192 -334 92 -159 177 -306 188 -325
11 -19 62 -109 115 -200 52 -91 129 -223 170 -295 41 -71 78 -134 82 -140 4
-5 21 -35 37 -65 36 -66 99 -175 121 -210 9 -14 15 -28 14 -32 -1 -5 2 -8 7
-8 5 0 11 -6 13 -12 2 -11 108 -198 139 -248 53 -86 239 -417 239 -427 0 -41
-200 -673 -270 -853 -16 -41 -49 -127 -74 -190 -315 -813 -773 -1568 -1321
-2179 -131 -146 -366 -381 -505 -506 -36 -33 -67 -62 -70 -65 -11 -14 -301
-251 -405 -331 -222 -171 -510 -372 -720 -503 -60 -38 -121 -76 -135 -86 -14
-9 -45 -28 -70 -42 -25 -14 -101 -57 -170 -95 -118 -66 -483 -253 -494 -253
-3 0 -29 -11 -58 -24 -120 -54 -150 -66 -293 -119 -242 -89 -509 -166 -669
-191 -19 -3 -55 -10 -78 -15 -24 -5 -70 -13 -103 -16 -33 -4 -69 -9 -80 -11
-11 -3 -71 -7 -134 -11 l-114 -6 5 24 c7 31 23 88 104 364 36 127 72 253 79
280 8 28 19 66 25 85 6 19 13 42 15 50 4 21 82 292 106 370 10 36 21 74 24 85
4 21 170 599 205 715 26 89 241 841 245 860 2 8 16 56 30 105 15 50 29 97 31
105 2 8 17 62 34 120 17 58 50 175 75 260 94 331 135 476 144 505 12 39 172
595 176 615 2 8 63 219 134 468 72 250 137 477 145 505 12 44 106 370 288
1002 22 77 44 154 48 170 11 42 207 730 225 785 7 25 68 236 134 470 67 234
131 454 141 490 11 36 22 74 25 85 2 11 36 130 75 265 78 266 81 276 105 365
19 69 185 646 251 875 25 85 47 162 49 170 2 8 11 40 20 70 15 50 22 78 24 89
1 7 7 -1 39 -55z m8897 -234 c43 -151 84 -295 91 -320 8 -25 48 -164 89 -310
41 -146 79 -278 84 -295 6 -16 24 -79 41 -140 18 -60 38 -132 46 -160 8 -27
17 -59 19 -69 2 -10 9 -33 14 -50 6 -17 17 -56 25 -86 8 -30 38 -134 66 -230
28 -96 53 -182 55 -190 12 -46 48 -170 80 -280 20 -69 38 -132 40 -141 3 -16
67 -237 84 -294 6 -16 23 -79 40 -140 17 -60 35 -123 40 -140 6 -16 109 -379
231 -805 121 -426 232 -811 245 -855 13 -44 52 -177 85 -295 34 -118 73 -253
86 -300 14 -47 27 -94 29 -105 3 -11 14 -49 24 -85 25 -84 81 -276 91 -315 4
-16 29 -102 55 -190 26 -88 55 -189 64 -225 19 -67 431 -1505 548 -1910 35
-124 66 -234 69 -244 2 -11 10 -40 18 -65 8 -25 16 -55 19 -66 8 -30 67 -235
77 -270 16 -50 51 -169 55 -185 5 -22 29 -108 69 -245 19 -66 59 -208 90 -315
31 -107 60 -209 66 -227 6 -18 13 -40 15 -50 1 -10 24 -90 50 -178 25 -88 48
-167 50 -175 2 -8 11 -38 18 -67 11 -36 11 -50 3 -48 -6 2 -58 6 -116 9 -58 3
-116 8 -130 10 -14 3 -45 7 -70 10 -25 3 -54 8 -65 10 -27 5 -82 14 -125 21
-19 3 -99 22 -178 41 -775 190 -1664 669 -2552 1373 -215 170 -350 291 -576
516 -206 205 -319 327 -461 500 -87 106 -353 459 -353 469 0 2 -24 40 -54 83
-132 191 -301 484 -436 753 -60 121 -86 175 -185 395 -124 274 -304 779 -417
1170 l-41 139 29 51 c15 27 111 194 212 370 102 176 202 350 223 387 21 37 47
82 58 100 10 18 69 121 131 228 63 107 161 278 219 380 58 102 109 187 113
188 5 2 8 7 8 12 0 5 57 107 126 227 69 120 136 236 149 258 12 22 46 81 75
130 29 50 62 108 75 130 12 22 46 81 75 130 29 50 64 110 78 135 14 25 45 78
69 118 24 41 43 75 43 78 0 2 16 28 35 58 19 30 35 57 35 60 0 3 29 54 63 113
35 60 109 187 164 283 56 96 109 189 119 207 17 27 121 209 164 284 215 379
536 926 541 921 3 -4 41 -131 84 -282z"/>
</g>
</svg>
