<svg width="1366" height="673" viewBox="0 0 1366 673" fill="none" xmlns="http://www.w3.org/2000/svg">
<g opacity="0.0757068">
<path fill-rule="evenodd" clip-rule="evenodd" d="M96.4212 515C95.6363 515 95 514.306 95 513.45C95 512.593 95.6363 511.899 96.4212 511.899C106.212 511.888 114.147 503.232 114.158 492.55C114.158 491.694 114.794 491 115.579 491C116.364 491 117 491.694 117 492.55C116.984 504.942 107.78 514.983 96.4212 515Z" fill="#24292E"/>
<path fill-rule="evenodd" clip-rule="evenodd" d="M41.889 284H22.4217C21.6365 284 21 283.308 21 282.455C21 281.602 21.6365 280.91 22.4217 280.91H41.889C50.9298 280.899 58.2562 272.937 58.2666 263.112V196.946C58.2771 185.414 66.8764 176.069 77.4875 176.057H101.779C110.82 176.046 118.146 168.084 118.157 158.259V3.54498C118.157 2.69171 118.793 2 119.578 2C120.363 2 121 2.69171 121 3.54498V158.28C120.99 169.811 112.39 179.157 101.779 179.168H77.4781C68.4373 179.179 61.1109 187.141 61.1005 196.966V263.132C61.0796 274.652 52.489 283.983 41.889 284Z" fill="#24292E"/>
<path fill-rule="evenodd" clip-rule="evenodd" d="M211.583 95H158.417C157.634 95 157 94.3284 157 93.5C157 92.6716 157.634 92 158.417 92H211.583C212.366 92 213 92.6716 213 93.5C213 94.3284 212.366 95 211.583 95Z" fill="#24292E"/>
<path fill-rule="evenodd" clip-rule="evenodd" d="M92.5996 116H51.4004C50.627 116 50 115.328 50 114.5C50 113.672 50.627 113 51.4004 113H92.5996C93.373 113 94 113.672 94 114.5C94 115.328 93.373 116 92.5996 116Z" fill="#24292E"/>
<path fill-rule="evenodd" clip-rule="evenodd" d="M145.571 116H133.429C132.64 116 132 115.328 132 114.5C132 113.672 132.64 113 133.429 113H145.571C146.36 113 147 113.672 147 114.5C147 115.328 146.36 116 145.571 116Z" fill="#24292E"/>
<path fill-rule="evenodd" clip-rule="evenodd" d="M49.5711 53H8.42888C7.63973 53 7 52.3284 7 51.5C7 50.6716 7.63973 50 8.42888 50H49.5711C50.3603 50 51 50.6716 51 51.5C51 52.3284 50.3603 53 49.5711 53Z" fill="#24292E"/>
<path fill-rule="evenodd" clip-rule="evenodd" d="M83.5703 53H62.4297C61.6401 53 61 52.3284 61 51.5C61 50.6716 61.6401 50 62.4297 50H83.5703C84.3599 50 85 50.6716 85 51.5C85 52.3284 84.3599 53 83.5703 53Z" fill="#24292E"/>
<path fill-rule="evenodd" clip-rule="evenodd" d="M169.591 53H143.409C142.631 53 142 52.3284 142 51.5C142 50.6716 142.631 50 143.409 50H169.591C170.369 50 171 50.6716 171 51.5C171 52.3284 170.369 53 169.591 53Z" fill="#24292E"/>
<path fill-rule="evenodd" clip-rule="evenodd" d="M205.534 53H186.466C185.656 53 185 52.3284 185 51.5C185 50.6716 185.656 50 186.466 50H205.534C206.344 50 207 50.6716 207 51.5C207 52.3284 206.344 53 205.534 53Z" fill="#24292E"/>
<path fill-rule="evenodd" clip-rule="evenodd" d="M292.602 53H279.389C278.622 53 278 52.3284 278 51.5C278 50.6716 278.622 50 279.389 50H292.62C293.117 50.0036 293.573 50.2928 293.819 50.7587C294.064 51.2245 294.06 51.7963 293.809 52.2586C293.558 52.7209 293.098 53.0035 292.602 53Z" fill="#24292E"/>
<path fill-rule="evenodd" clip-rule="evenodd" d="M340.569 53H308.431C307.641 53 307 52.3284 307 51.5C307 50.6716 307.641 50 308.431 50H340.569C341.359 50 342 50.6716 342 51.5C342 52.3284 341.359 53 340.569 53Z" fill="#24292E"/>
<path fill-rule="evenodd" clip-rule="evenodd" d="M72.5413 74H57.4587C56.6531 74 56 73.3284 56 72.5C56 71.6716 56.6531 71 57.4587 71H72.5413C73.3469 71 74 71.6716 74 72.5C74 73.3284 73.3469 74 72.5413 74Z" fill="#24292E"/>
<path fill-rule="evenodd" clip-rule="evenodd" d="M103.535 158H85.4651C84.656 158 84 157.328 84 156.5C84 155.672 84.656 155 85.4651 155H103.535C104.344 155 105 155.672 105 156.5C105 157.328 104.344 158 103.535 158Z" fill="#24292E"/>
<path fill-rule="evenodd" clip-rule="evenodd" d="M83.5725 178H33.4275C32.6391 178 32 177.328 32 176.5C32 175.672 32.6391 175 33.4275 175H83.5725C84.3609 175 85 175.672 85 176.5C85 177.328 84.3609 178 83.5725 178Z" fill="#24292E"/>
<path fill-rule="evenodd" clip-rule="evenodd" d="M99.5981 136H85.4019C84.6276 136 84 135.328 84 134.5C84 133.672 84.6276 133 85.4019 133H99.5981C100.372 133 101 133.672 101 134.5C101 135.328 100.372 136 99.5981 136Z" fill="#24292E"/>
<path fill-rule="evenodd" clip-rule="evenodd" d="M43.5427 242H6.44283C5.64597 242 5 241.328 5 240.5C5 239.672 5.64597 239 6.44283 239H43.5715C44.3684 239.008 45.0079 239.687 44.9999 240.515C44.992 241.343 44.3395 242.008 43.5427 242Z" fill="#24292E"/>
<path fill-rule="evenodd" clip-rule="evenodd" d="M95.56 242H74.44C73.6447 242 73 241.328 73 240.5C73 239.672 73.6447 239 74.44 239H95.56C96.3553 239 97 239.672 97 240.5C97 241.328 96.3553 242 95.56 242Z" fill="#24292E"/>
<path fill-rule="evenodd" clip-rule="evenodd" d="M184.563 242H168.437C167.643 242 167 241.328 167 240.5C167 239.672 167.643 239 168.437 239H184.563C185.357 239 186 239.672 186 240.5C186 241.328 185.357 242 184.563 242Z" fill="#24292E"/>
<path fill-rule="evenodd" clip-rule="evenodd" d="M235.57 242H198.435C197.642 242 197 241.328 197 240.5C197 239.672 197.642 239 198.435 239H235.561C236.353 238.997 236.997 239.667 237 240.495C237.003 241.323 236.363 241.997 235.57 242Z" fill="#24292E"/>
<path fill-rule="evenodd" clip-rule="evenodd" d="M156.632 263H135.368C134.612 263 134 262.328 134 261.5C134 260.672 134.612 260 135.368 260H156.632C157.388 260 158 260.672 158 261.5C158 262.328 157.388 263 156.632 263Z" fill="#24292E"/>
<path fill-rule="evenodd" clip-rule="evenodd" d="M121.558 199H106.442C105.645 199 105 198.328 105 197.5C105 196.672 105.645 196 106.442 196H121.558C122.355 196 123 196.672 123 197.5C123 198.328 122.355 199 121.558 199Z" fill="#24292E"/>
<path fill-rule="evenodd" clip-rule="evenodd" d="M180.603 199H138.397C137.625 199 137 198.328 137 197.5C137 196.672 137.625 196 138.397 196H180.603C181.102 196 181.563 196.286 181.813 196.75C182.062 197.214 182.062 197.786 181.813 198.25C181.563 198.714 181.102 199 180.603 199Z" fill="#24292E"/>
<path fill-rule="evenodd" clip-rule="evenodd" d="M215.639 199H194.361C193.609 199 193 198.328 193 197.5C193 196.672 193.609 196 194.361 196H215.639C216.126 196 216.575 196.286 216.818 196.75C217.061 197.214 217.061 197.786 216.818 198.25C216.575 198.714 216.126 199 215.639 199Z" fill="#24292E"/>
<path fill-rule="evenodd" clip-rule="evenodd" d="M130.562 220H74.4381C73.6439 220 73 219.328 73 218.5C73 217.672 73.6439 217 74.4381 217H130.562C131.356 217 132 217.672 132 218.5C132 219.328 131.356 220 130.562 220Z" fill="#24292E"/>
<path fill-rule="evenodd" clip-rule="evenodd" d="M198.561 220H157.439C156.644 220 156 219.328 156 218.5C156 217.672 156.644 217 157.439 217H198.561C199.356 217 200 217.672 200 218.5C200 219.328 199.356 220 198.561 220Z" fill="#24292E"/>
<path fill-rule="evenodd" clip-rule="evenodd" d="M265.59 220H212.415C211.633 220 211 219.328 211 218.5C211 217.672 211.633 217 212.415 217H265.581C266.362 216.997 266.997 217.667 267 218.495C267.003 219.323 266.371 219.997 265.59 220Z" fill="#24292E"/>
<path fill-rule="evenodd" clip-rule="evenodd" d="M34.5791 220H14.4209C13.6362 220 13 219.328 13 218.5C13 217.672 13.6362 217 14.4209 217H34.5791C35.3638 217 36 217.672 36 218.5C36 219.328 35.3638 220 34.5791 220Z" fill="#24292E"/>
<path fill-rule="evenodd" clip-rule="evenodd" d="M70.5831 304H36.4169C35.6344 304 35 303.328 35 302.5C35 301.672 35.6344 301 36.4169 301H70.5831C71.3656 301 72 301.672 72 302.5C72 303.328 71.3656 304 70.5831 304Z" fill="#24292E"/>
<path fill-rule="evenodd" clip-rule="evenodd" d="M113.579 304H84.4214C83.6364 304 83 303.328 83 302.5C83 301.672 83.6364 301 84.4214 301H113.579C114.364 301 115 301.672 115 302.5C115 303.328 114.364 304 113.579 304Z" fill="#24292E"/>
<path fill-rule="evenodd" clip-rule="evenodd" d="M205.582 304H172.418C171.635 304 171 303.328 171 302.5C171 301.672 171.635 301 172.418 301H205.582C206.365 301 207 301.672 207 302.5C207 303.328 206.365 304 205.582 304Z" fill="#24292E"/>
<path fill-rule="evenodd" clip-rule="evenodd" d="M88.6023 283H66.3977C65.6258 283 65 282.328 65 281.5C65 280.672 65.6258 280 66.3977 280H88.6023C89.3742 280 90 280.672 90 281.5C90 282.328 89.3742 283 88.6023 283Z" fill="#24292E"/>
<path fill-rule="evenodd" clip-rule="evenodd" d="M110.5 283H99.5C98.6716 283 98 282.328 98 281.5C98 280.672 98.6716 280 99.5 280H110.5C111.328 280 112 280.672 112 281.5C112 282.328 111.328 283 110.5 283Z" fill="#24292E"/>
<path fill-rule="evenodd" clip-rule="evenodd" d="M122.586 389H97.4092C96.6309 389 96 388.328 96 387.5C96 386.672 96.6309 386 97.4092 386H122.596C123.374 386.003 124.003 386.677 124 387.505C123.997 388.333 123.364 389.003 122.586 389Z" fill="#24292E"/>
<path fill-rule="evenodd" clip-rule="evenodd" d="M152.482 410H143.518C142.68 410 142 409.328 142 408.5C142 407.672 142.68 407 143.518 407H152.482C153.32 407 154 407.672 154 408.5C154 409.328 153.32 410 152.482 410Z" fill="#24292E"/>
<path fill-rule="evenodd" clip-rule="evenodd" d="M50.5655 347H7.42019C6.63584 347 6 346.328 6 345.5C6 344.672 6.63584 344 7.42019 344H50.5939C51.1013 344.005 51.5675 344.296 51.8168 344.763C52.0661 345.23 52.0606 345.802 51.8026 346.263C51.5445 346.724 51.0729 347.005 50.5655 347Z" fill="#24292E"/>
<path fill-rule="evenodd" clip-rule="evenodd" d="M173.589 347H157.411C156.632 347 156 346.328 156 345.5C156 344.672 156.632 344 157.411 344H173.589C174.368 344 175 344.672 175 345.5C175 346.328 174.368 347 173.589 347Z" fill="#24292E"/>
<path fill-rule="evenodd" clip-rule="evenodd" d="M73.5891 367H54.4109C53.6317 367 53 366.328 53 365.5C53 364.672 53.6317 364 54.4109 364H73.5891C74.3683 364 75 364.672 75 365.5C75 366.328 74.3683 367 73.5891 367Z" fill="#24292E"/>
<path fill-rule="evenodd" clip-rule="evenodd" d="M122.568 367H86.4317C85.641 367 85 366.328 85 365.5C85 364.672 85.641 364 86.4317 364H122.568C123.359 364 124 364.672 124 365.5C124 366.328 123.359 367 122.568 367Z" fill="#24292E"/>
<path fill-rule="evenodd" clip-rule="evenodd" d="M170.625 367H148.375C147.616 367 147 366.328 147 365.5C147 364.672 147.616 364 148.375 364H170.625C171.384 364 172 364.672 172 365.5C172 366.328 171.384 367 170.625 367Z" fill="#24292E"/>
<path fill-rule="evenodd" clip-rule="evenodd" d="M189.5 367H180.5C179.672 367 179 366.328 179 365.5C179 364.672 179.672 364 180.5 364H189.5C190.328 364 191 364.672 191 365.5C191 366.328 190.328 367 189.5 367Z" fill="#24292E"/>
<path fill-rule="evenodd" clip-rule="evenodd" d="M112.577 452H74.4226C73.6369 452 73 451.328 73 450.5C73 449.672 73.6369 449 74.4226 449H112.577C113.363 449 114 449.672 114 450.5C114 451.328 113.363 452 112.577 452Z" fill="#24292E"/>
<path fill-rule="evenodd" clip-rule="evenodd" d="M59.5732 452H23.4268C22.6388 452 22 451.328 22 450.5C22 449.672 22.6388 449 23.4268 449H59.5732C60.3612 449 61 449.672 61 450.5C61 451.328 60.3612 452 59.5732 452Z" fill="#24292E"/>
<path fill-rule="evenodd" clip-rule="evenodd" d="M67.4631 473H55.5369C54.6881 473 54 472.328 54 471.5C54 470.672 54.6881 470 55.5369 470H67.4631C68.3119 470 69 470.672 69 471.5C69 472.328 68.3119 473 67.4631 473Z" fill="#24292E"/>
<path fill-rule="evenodd" clip-rule="evenodd" d="M194.614 473H173.381C172.618 473 172 472.328 172 471.5C172 470.672 172.618 470 173.381 470H194.623C195.386 470.003 196.003 470.677 196 471.505C195.997 472.333 195.377 473.003 194.614 473Z" fill="#24292E"/>
<path fill-rule="evenodd" clip-rule="evenodd" d="M75.5974 431H60.4026C59.628 431 59 430.328 59 429.5C59 428.672 59.628 428 60.4026 428H75.5974C76.372 428 77 428.672 77 429.5C77 430.328 76.372 431 75.5974 431Z" fill="#24292E"/>
<path fill-rule="evenodd" clip-rule="evenodd" d="M98.4694 431H89.5306C88.6853 431 88 430.328 88 429.5C88 428.672 88.6853 428 89.5306 428H98.4694C99.3147 428 100 428.672 100 429.5C100 430.328 99.3147 431 98.4694 431Z" fill="#24292E"/>
<path fill-rule="evenodd" clip-rule="evenodd" d="M186.628 672.959C185.843 672.959 185.208 672.27 185.208 671.42V658.084C185.177 648.32 177.87 640.419 168.862 640.408L91.8167 640.49C86.7259 640.518 81.8335 638.352 78.216 634.469C74.5985 630.587 72.5521 625.306 72.527 619.788L72.3472 561.314V555.446C72.3525 544.775 64.3891 536.112 54.5435 536.078H25.4197C24.6356 536.078 24 535.389 24 534.539C24 533.689 24.6356 533 25.4197 533H54.5435C65.9589 533.017 75.2089 543.043 75.2246 555.415V561.273L75.4044 619.747C75.4253 629.518 82.736 637.428 91.7505 637.433L168.796 637.351C179.385 637.357 187.974 646.648 188 658.125V671.461C188 672.311 187.364 673 186.58 673L186.628 672.959Z" fill="#24292E"/>
<path fill-rule="evenodd" clip-rule="evenodd" d="M106.582 536H79.4182C78.635 536 78 535.328 78 534.5C78 533.672 78.635 533 79.4182 533H106.582C107.365 533 108 533.672 108 534.5C108 535.328 107.365 536 106.582 536Z" fill="#24292E"/>
<path fill-rule="evenodd" clip-rule="evenodd" d="M179.591 536H120.409C119.631 536 119 535.328 119 534.5C119 533.672 119.631 533 120.409 533H179.591C180.369 533 181 533.672 181 534.5C181 535.328 180.369 536 179.591 536Z" fill="#24292E"/>
<path fill-rule="evenodd" clip-rule="evenodd" d="M61.6339 557H49.3661C48.6116 557 48 556.328 48 555.5C48 554.672 48.6116 554 49.3661 554H61.6339C62.3884 554 63 554.672 63 555.5C63 556.328 62.3884 557 61.6339 557Z" fill="#24292E"/>
<path fill-rule="evenodd" clip-rule="evenodd" d="M141.576 494H103.424C102.638 494 102 493.328 102 492.5C102 491.672 102.638 491 103.424 491H141.576C142.362 491 143 491.672 143 492.5C143 493.328 142.362 494 141.576 494Z" fill="#24292E"/>
<path fill-rule="evenodd" clip-rule="evenodd" d="M39.5794 515H8.42061C7.63603 515 7 514.328 7 513.5C7 512.672 7.63603 512 8.42061 512H39.5794C40.364 512 41 512.672 41 513.5C41 514.328 40.364 515 39.5794 515Z" fill="#24292E"/>
<path fill-rule="evenodd" clip-rule="evenodd" d="M125.569 515H92.4312C91.6408 515 91 514.328 91 513.5C91 512.672 91.6408 512 92.4312 512H125.569C126.359 512 127 512.672 127 513.5C127 514.328 126.359 515 125.569 515Z" fill="#24292E"/>
<path fill-rule="evenodd" clip-rule="evenodd" d="M145.45 515H138.55C137.694 515 137 514.328 137 513.5C137 512.672 137.694 512 138.55 512H145.45C146.306 512 147 512.672 147 513.5C147 514.328 146.306 515 145.45 515Z" fill="#24292E"/>
<path fill-rule="evenodd" clip-rule="evenodd" d="M150.569 598H119.431C118.641 598 118 597.328 118 596.5C118 595.672 118.641 595 119.431 595H150.569C151.359 595 152 595.672 152 596.5C152 597.328 151.359 598 150.569 598Z" fill="#24292E"/>
<path fill-rule="evenodd" clip-rule="evenodd" d="M175.549 598H162.451C161.65 598 161 597.328 161 596.5C161 595.672 161.65 595 162.451 595H175.549C176.35 595 177 595.672 177 596.5C177 597.328 176.35 598 175.549 598Z" fill="#24292E"/>
<path fill-rule="evenodd" clip-rule="evenodd" d="M132.598 619H91.4025C90.6279 619 90 618.328 90 617.5C90 616.672 90.6279 616 91.4025 616H132.598C133.372 616 134 616.672 134 617.5C134 618.328 133.372 619 132.598 619Z" fill="#24292E"/>
<path fill-rule="evenodd" clip-rule="evenodd" d="M32.588 578H1.41196C0.632156 578 0 577.328 0 576.5C0 575.672 0.632156 575 1.41196 575H32.588C33.3678 575 34 575.672 34 576.5C34 577.328 33.3678 578 32.588 578Z" fill="#24292E"/>
<path fill-rule="evenodd" clip-rule="evenodd" d="M124.54 578H105.46C104.653 578 104 577.328 104 576.5C104 575.672 104.653 575 105.46 575H124.54C125.347 575 126 575.672 126 576.5C126 577.328 125.347 578 124.54 578Z" fill="#24292E"/>
<path fill-rule="evenodd" clip-rule="evenodd" d="M157.566 578H136.434C135.642 578 135 577.328 135 576.5C135 575.672 135.642 575 136.434 575H157.566C158.358 575 159 575.672 159 576.5C159 577.328 158.358 578 157.566 578Z" fill="#24292E"/>
<path fill-rule="evenodd" clip-rule="evenodd" d="M346.565 619H308.435C307.642 619 307 618.328 307 617.5C307 616.672 307.642 616 308.435 616H346.565C347.358 616 348 616.672 348 617.5C348 618.328 347.358 619 346.565 619Z" fill="#24292E"/>
<path fill-rule="evenodd" clip-rule="evenodd" d="M1259.57 95H1210.43C1209.64 95 1209 94.3284 1209 93.5C1209 92.6716 1209.64 92 1210.43 92H1259.57C1260.36 92 1261 92.6716 1261 93.5C1261 94.3284 1260.36 95 1259.57 95Z" fill="#24292E"/>
<path fill-rule="evenodd" clip-rule="evenodd" d="M1199.6 95H1170.4C1169.63 95 1169 94.3284 1169 93.5C1169 92.6716 1169.63 92 1170.4 92H1199.6C1200.37 92 1201 92.6716 1201 93.5C1201 94.3284 1200.37 95 1199.6 95Z" fill="#24292E"/>
<path fill-rule="evenodd" clip-rule="evenodd" d="M1124.61 95H1098.39C1097.62 95 1097 94.3284 1097 93.5C1097 92.6716 1097.62 92 1098.39 92H1124.61C1125.38 92 1126 92.6716 1126 93.5C1126 94.3284 1125.38 95 1124.61 95Z" fill="#24292E"/>
<path fill-rule="evenodd" clip-rule="evenodd" d="M1361.59 94.9999H1338.4C1337.63 94.9999 1337 94.3284 1337 93.5C1337 92.6716 1337.63 92 1338.4 92H1361.62C1362.39 92.0083 1363.01 92.6866 1363 93.515C1362.99 94.3434 1362.36 95.0082 1361.59 94.9999Z" fill="#24292E"/>
<path fill-rule="evenodd" clip-rule="evenodd" d="M1212.55 116H1197.45C1196.65 116 1196 115.328 1196 114.5C1196 113.672 1196.65 113 1197.45 113H1212.55C1213.35 113 1214 113.672 1214 114.5C1214 115.328 1213.35 116 1212.55 116Z" fill="#24292E"/>
<path fill-rule="evenodd" clip-rule="evenodd" d="M1293.58 53H1233.42C1232.64 53 1232 52.3284 1232 51.5C1232 50.6716 1232.64 50 1233.42 50H1293.59C1294.37 50.0028 1295 50.6766 1295 51.505C1295 52.3334 1294.36 53.0028 1293.58 53Z" fill="#24292E"/>
<path fill-rule="evenodd" clip-rule="evenodd" d="M1125.62 53H1111.38C1110.62 53 1110 52.3284 1110 51.5C1110 50.6716 1110.62 50 1111.38 50H1125.62C1126.38 50 1127 50.6716 1127 51.5C1127 52.3284 1126.38 53 1125.62 53Z" fill="#24292E"/>
<path fill-rule="evenodd" clip-rule="evenodd" d="M1097.59 53H1006.41C1005.63 53 1005 52.3284 1005 51.5C1005 50.6716 1005.63 50 1006.41 50H1097.59C1098.37 50 1099 50.6716 1099 51.5C1099 52.3284 1098.37 53 1097.59 53Z" fill="#24292E"/>
<path fill-rule="evenodd" clip-rule="evenodd" d="M1317.58 53H1305.42C1304.63 53 1304 52.3284 1304 51.5C1304 50.6716 1304.63 50 1305.42 50H1317.58C1318.37 50 1319 50.6716 1319 51.5C1319 52.3284 1318.37 53 1317.58 53Z" fill="#24292E"/>
<path fill-rule="evenodd" clip-rule="evenodd" d="M1072.57 74H1051.43C1050.64 74 1050 73.3284 1050 72.5C1050 71.6716 1050.64 71 1051.43 71H1072.58C1073.09 71.0036 1073.56 71.2928 1073.81 71.7587C1074.07 72.2245 1074.06 72.7963 1073.8 73.2586C1073.55 73.7209 1073.07 74.0035 1072.57 74Z" fill="#24292E"/>
<path fill-rule="evenodd" clip-rule="evenodd" d="M1273.6 74H1246.4C1245.63 74 1245 73.3284 1245 72.5C1245 71.6716 1245.63 71 1246.4 71H1273.6C1274.37 71 1275 71.6716 1275 72.5C1275 73.3284 1274.37 74 1273.6 74Z" fill="#24292E"/>
<path fill-rule="evenodd" clip-rule="evenodd" d="M1244.57 32H1215.43C1214.64 32 1214 31.3284 1214 30.5C1214 29.6716 1214.64 29 1215.43 29H1244.57C1245.36 29 1246 29.6716 1246 30.5C1246 31.3284 1245.36 32 1244.57 32Z" fill="#24292E"/>
<path fill-rule="evenodd" clip-rule="evenodd" d="M1082.59 32H1047.41C1046.63 32 1046 31.3284 1046 30.5C1046 29.6716 1046.63 29 1047.41 29H1082.58C1083.09 28.9982 1083.55 29.2825 1083.81 29.7457C1084.06 30.2089 1084.06 30.7807 1083.81 31.2457C1083.56 31.7107 1083.1 31.9982 1082.59 32Z" fill="#24292E"/>
<path fill-rule="evenodd" clip-rule="evenodd" d="M1031.59 32H924.41C923.631 32 923 31.3284 923 30.5C923 29.6716 923.631 29 924.41 29H1031.59C1032.37 29 1033 29.6716 1033 30.5C1033 31.3284 1032.37 32 1031.59 32Z" fill="#24292E"/>
<path fill-rule="evenodd" clip-rule="evenodd" d="M374.591 31.9999H301.395C300.625 31.9999 300 31.3284 300 30.5C300 29.6716 300.625 29 301.395 29H374.619C375.389 29.0083 376.008 29.6866 376 30.515C375.992 31.3434 375.361 32.0082 374.591 31.9999Z" fill="#24292E"/>
<path fill-rule="evenodd" clip-rule="evenodd" d="M428.561 32H388.439C387.644 32 387 31.3284 387 30.5C387 29.6716 387.644 29 388.439 29H428.561C429.356 29 430 29.6716 430 30.5C430 31.3284 429.356 32 428.561 32Z" fill="#24292E"/>
<path fill-rule="evenodd" clip-rule="evenodd" d="M1254.51 158H1245.49C1244.67 158 1244 157.328 1244 156.5C1244 155.672 1244.67 155 1245.49 155H1254.51C1255.33 155 1256 155.672 1256 156.5C1256 157.328 1255.33 158 1254.51 158Z" fill="#24292E"/>
<path fill-rule="evenodd" clip-rule="evenodd" d="M1302.59 158H1269.41C1268.63 158 1268 157.328 1268 156.5C1268 155.672 1268.63 155 1269.41 155H1302.59C1303.37 155 1304 155.672 1304 156.5C1304 157.328 1303.37 158 1302.59 158Z" fill="#24292E"/>
<path fill-rule="evenodd" clip-rule="evenodd" d="M1214.6 178H1192.4C1191.63 178 1191 177.328 1191 176.5C1191 175.672 1191.63 175 1192.4 175H1214.6C1215.37 175 1216 175.672 1216 176.5C1216 177.328 1215.37 178 1214.6 178Z" fill="#24292E"/>
<path fill-rule="evenodd" clip-rule="evenodd" d="M1334.59 178H1302.41C1301.63 178 1301 177.328 1301 176.5C1301 175.672 1301.63 175 1302.41 175H1334.59C1335.37 175 1336 175.672 1336 176.5C1336 177.328 1335.37 178 1334.59 178Z" fill="#24292E"/>
<path fill-rule="evenodd" clip-rule="evenodd" d="M1297.6 136H1280.4C1279.63 136 1279 135.328 1279 134.5C1279 133.672 1279.63 133 1280.4 133H1297.6C1298.37 133 1299 133.672 1299 134.5C1299 135.328 1298.37 136 1297.6 136Z" fill="#24292E"/>
<path fill-rule="evenodd" clip-rule="evenodd" d="M1185.54 242H1173.46C1172.65 242 1172 241.328 1172 240.5C1172 239.672 1172.65 239 1173.46 239H1185.54C1186.35 239 1187 239.672 1187 240.5C1187 241.328 1186.35 242 1185.54 242Z" fill="#24292E"/>
<path fill-rule="evenodd" clip-rule="evenodd" d="M1220.62 242H1198.38C1197.62 242 1197 241.328 1197 240.5C1197 239.672 1197.62 239 1198.38 239H1220.62C1221.38 239 1222 239.672 1222 240.5C1222 241.328 1221.38 242 1220.62 242Z" fill="#24292E"/>
<path fill-rule="evenodd" clip-rule="evenodd" d="M1258.61 242H1245.39C1244.62 242 1244 241.328 1244 240.5C1244 239.672 1244.62 239 1245.39 239H1258.61C1259.38 239 1260 239.672 1260 240.5C1260 241.328 1259.38 242 1258.61 242Z" fill="#24292E"/>
<path fill-rule="evenodd" clip-rule="evenodd" d="M1308.59 242H1273.41C1272.63 242 1272 241.328 1272 240.5C1272 239.672 1272.63 239 1273.41 239H1308.59C1309.1 239 1309.56 239.286 1309.81 239.75C1310.06 240.214 1310.06 240.786 1309.81 241.25C1309.56 241.714 1309.1 242 1308.59 242Z" fill="#24292E"/>
<path fill-rule="evenodd" clip-rule="evenodd" d="M1359.57 242H1340.43C1339.64 242 1339 241.328 1339 240.5C1339 239.672 1339.64 239 1340.43 239H1359.57C1360.36 239 1361 239.672 1361 240.5C1361 241.328 1360.36 242 1359.57 242Z" fill="#24292E"/>
<path fill-rule="evenodd" clip-rule="evenodd" d="M1320.58 199H1280.42C1279.64 199 1279 198.328 1279 197.5C1279 196.672 1279.64 196 1280.42 196H1320.58C1321.36 196 1322 196.672 1322 197.5C1322 198.328 1321.36 199 1320.58 199Z" fill="#24292E"/>
<path fill-rule="evenodd" clip-rule="evenodd" d="M1272.58 220H1245.42C1244.64 220 1244 219.328 1244 218.5C1244 217.672 1244.64 217 1245.42 217H1272.58C1273.36 217 1274 217.672 1274 218.5C1274 219.328 1273.36 220 1272.58 220Z" fill="#24292E"/>
<path fill-rule="evenodd" clip-rule="evenodd" d="M1297.45 220H1286.55C1285.69 220 1285 219.328 1285 218.5C1285 217.672 1285.69 217 1286.55 217H1297.45C1298.31 217 1299 217.672 1299 218.5C1299 219.328 1298.31 220 1297.45 220Z" fill="#24292E"/>
<path fill-rule="evenodd" clip-rule="evenodd" d="M1204.62 305H1179.4C1178.62 305 1178 304.328 1178 303.5C1178 302.672 1178.62 302 1179.4 302H1204.59C1205.36 301.992 1205.99 302.657 1206 303.485C1206.01 304.313 1205.39 304.992 1204.62 305Z" fill="#24292E"/>
<path fill-rule="evenodd" clip-rule="evenodd" d="M1244.61 305H1220.39C1219.62 305 1219 304.328 1219 303.5C1219 302.672 1219.62 302 1220.39 302H1244.61C1245.38 302 1246 302.672 1246 303.5C1246 304.328 1245.38 305 1244.61 305Z" fill="#24292E"/>
<path fill-rule="evenodd" clip-rule="evenodd" d="M1308.6 305H1262.4C1261.63 305 1261 304.328 1261 303.5C1261 302.672 1261.63 302 1262.4 302H1308.6C1309.1 302 1309.56 302.286 1309.81 302.75C1310.06 303.214 1310.06 303.786 1309.81 304.25C1309.56 304.714 1309.1 305 1308.6 305Z" fill="#24292E"/>
<path fill-rule="evenodd" clip-rule="evenodd" d="M1188.59 326H1161.41C1160.63 326 1160 325.328 1160 324.5C1160 323.672 1160.63 323 1161.41 323H1188.59C1189.37 323 1190 323.672 1190 324.5C1190 325.328 1189.37 326 1188.59 326Z" fill="#24292E"/>
<path fill-rule="evenodd" clip-rule="evenodd" d="M1357.62 347H1335.38C1334.62 347 1334 346.328 1334 345.5C1334 344.672 1334.62 344 1335.38 344H1357.62C1358.38 344 1359 344.672 1359 345.5C1359 346.328 1358.38 347 1357.62 347Z" fill="#24292E"/>
<path fill-rule="evenodd" clip-rule="evenodd" d="M1228.62 283H1214.4C1213.63 283 1213 282.328 1213 281.5C1213 280.672 1213.63 280 1214.4 280H1228.58C1229.35 279.986 1229.99 280.647 1230 281.475C1230.01 282.303 1229.4 282.986 1228.62 283Z" fill="#24292E"/>
<path fill-rule="evenodd" clip-rule="evenodd" d="M1271.59 283H1244.41C1243.63 283 1243 282.328 1243 281.5C1243 280.672 1243.63 280 1244.41 280H1271.59C1272.37 280 1273 280.672 1273 281.5C1273 282.328 1272.37 283 1271.59 283Z" fill="#24292E"/>
<path fill-rule="evenodd" clip-rule="evenodd" d="M1363.57 283H1335.43C1334.64 283 1334 282.328 1334 281.5C1334 280.672 1334.64 280 1335.43 280H1363.57C1364.36 280 1365 280.672 1365 281.5C1365 282.328 1364.36 283 1363.57 283Z" fill="#24292E"/>
<path fill-rule="evenodd" clip-rule="evenodd" d="M1261.58 389H1221.42C1220.64 389 1220 388.328 1220 387.5C1220 386.672 1220.64 386 1221.42 386H1261.58C1262.36 386 1263 386.672 1263 387.5C1263 388.328 1262.36 389 1261.58 389Z" fill="#24292E"/>
<path fill-rule="evenodd" clip-rule="evenodd" d="M1294.56 389H1274.46C1273.65 389 1273 388.328 1273 387.5C1273 386.672 1273.65 386 1274.46 386H1294.53C1295.05 385.995 1295.53 386.276 1295.8 386.737C1296.06 387.198 1296.07 387.77 1295.81 388.237C1295.56 388.704 1295.08 388.995 1294.56 389Z" fill="#24292E"/>
<path fill-rule="evenodd" clip-rule="evenodd" d="M1356.61 410H1335.39C1334.62 410 1334 409.328 1334 408.5C1334 407.672 1334.62 407 1335.39 407H1356.61C1357.38 407 1358 407.672 1358 408.5C1358 409.328 1357.38 410 1356.61 410Z" fill="#24292E"/>
<path fill-rule="evenodd" clip-rule="evenodd" d="M1307.61 347H1279.39C1278.62 347 1278 346.328 1278 345.5C1278 344.672 1278.62 344 1279.39 344H1307.61C1308.38 344 1309 344.672 1309 345.5C1309 346.328 1308.38 347 1307.61 347Z" fill="#24292E"/>
<path fill-rule="evenodd" clip-rule="evenodd" d="M1243.52 367H1234.48C1233.66 367 1233 366.328 1233 365.5C1233 364.672 1233.66 364 1234.48 364H1243.52C1244.34 364 1245 364.672 1245 365.5C1245 366.328 1244.34 367 1243.52 367Z" fill="#24292E"/>
<path fill-rule="evenodd" clip-rule="evenodd" d="M1275.57 367H1255.43C1254.64 367 1254 366.328 1254 365.5C1254 364.672 1254.64 364 1255.43 364H1275.57C1276.36 364 1277 364.672 1277 365.5C1277 366.328 1276.36 367 1275.57 367Z" fill="#24292E"/>
<path fill-rule="evenodd" clip-rule="evenodd" d="M1357.6 367H1335.4C1334.62 367 1334 366.328 1334 365.5C1334 364.672 1334.62 364 1335.4 364H1357.6C1358.38 364 1359 364.672 1359 365.5C1359 366.328 1358.38 367 1357.6 367Z" fill="#24292E"/>
<path fill-rule="evenodd" clip-rule="evenodd" d="M1307.59 452H1259.41C1258.63 452 1258 451.328 1258 450.5C1258 449.672 1258.63 449 1259.41 449H1307.59C1308.37 449 1309 449.672 1309 450.5C1309 451.328 1308.37 452 1307.59 452Z" fill="#24292E"/>
<path fill-rule="evenodd" clip-rule="evenodd" d="M1312.61 473H1287.39C1286.62 473 1286 472.328 1286 471.5C1286 470.672 1286.62 470 1287.39 470H1312.61C1313.38 470 1314 470.672 1314 471.5C1314 472.328 1313.38 473 1312.61 473Z" fill="#24292E"/>
<path fill-rule="evenodd" clip-rule="evenodd" d="M1272.56 431H1232.44C1231.64 431 1231 430.328 1231 429.5C1231 428.672 1231.64 428 1232.44 428H1272.56C1273.36 428 1274 428.672 1274 429.5C1274 430.328 1273.36 431 1272.56 431Z" fill="#24292E"/>
<path fill-rule="evenodd" clip-rule="evenodd" d="M1308.56 431H1296.44C1295.64 431 1295 430.328 1295 429.5C1295 428.672 1295.64 428 1296.44 428H1308.56C1309.36 428 1310 428.672 1310 429.5C1310 430.328 1309.36 431 1308.56 431Z" fill="#24292E"/>
<path fill-rule="evenodd" clip-rule="evenodd" d="M1242.59 536H1199.41C1198.63 536 1198 535.328 1198 534.5C1198 533.672 1198.63 533 1199.41 533H1242.59C1243.37 533 1244 533.672 1244 534.5C1244 535.328 1243.37 536 1242.59 536Z" fill="#24292E"/>
<path fill-rule="evenodd" clip-rule="evenodd" d="M1311.56 536H1256.44C1255.64 536 1255 535.328 1255 534.5C1255 533.672 1255.64 533 1256.44 533H1311.56C1312.36 533 1313 533.672 1313 534.5C1313 535.328 1312.36 536 1311.56 536Z" fill="#24292E"/>
<path fill-rule="evenodd" clip-rule="evenodd" d="M1202.57 557H1148.43C1147.64 557 1147 556.328 1147 555.5C1147 554.672 1147.64 554 1148.43 554H1202.57C1203.36 554 1204 554.672 1204 555.5C1204 556.328 1203.36 557 1202.57 557Z" fill="#24292E"/>
<path fill-rule="evenodd" clip-rule="evenodd" d="M1244.58 557H1216.43C1215.64 557 1215 556.328 1215 555.5C1215 554.672 1215.64 554 1216.43 554H1244.57C1245.35 553.995 1245.99 554.662 1246 555.49C1246.01 556.318 1245.37 556.994 1244.58 557Z" fill="#24292E"/>
<path fill-rule="evenodd" clip-rule="evenodd" d="M1223.6 494H1210.4C1209.63 494 1209 493.328 1209 492.5C1209 491.672 1209.63 491 1210.4 491H1223.6C1224.37 491 1225 491.672 1225 492.5C1225 493.328 1224.37 494 1223.6 494Z" fill="#24292E"/>
<path fill-rule="evenodd" clip-rule="evenodd" d="M1358.59 494H1337.39C1336.62 494 1336 493.328 1336 492.5C1336 491.672 1336.62 491 1337.39 491H1358.62C1359.12 491.005 1359.58 491.296 1359.82 491.763C1360.06 492.23 1360.06 492.802 1359.81 493.263C1359.55 493.724 1359.09 494.005 1358.59 494Z" fill="#24292E"/>
<path fill-rule="evenodd" clip-rule="evenodd" d="M1246.56 515H1214.44C1213.64 515 1213 514.328 1213 513.5C1213 512.672 1213.64 512 1214.44 512H1246.56C1247.36 512 1248 512.672 1248 513.5C1248 514.328 1247.36 515 1246.56 515Z" fill="#24292E"/>
<path fill-rule="evenodd" clip-rule="evenodd" d="M1280.62 515H1267.38C1266.62 515 1266 514.328 1266 513.5C1266 512.672 1266.62 512 1267.38 512H1280.62C1281.38 512 1282 512.672 1282 513.5C1282 514.328 1281.38 515 1280.62 515Z" fill="#24292E"/>
<path fill-rule="evenodd" clip-rule="evenodd" d="M1137.55 619H1121.46C1120.65 619 1120 618.328 1120 617.5C1120 616.672 1120.65 616 1121.46 616H1137.53C1138.05 615.996 1138.54 616.279 1138.8 616.741C1139.06 617.204 1139.07 617.775 1138.81 618.241C1138.55 618.707 1138.07 618.996 1137.55 619Z" fill="#24292E"/>
<path fill-rule="evenodd" clip-rule="evenodd" d="M1324.56 619H1290.44C1289.64 619 1289 618.328 1289 617.5C1289 616.672 1289.64 616 1290.44 616H1324.56C1325.36 616 1326 616.672 1326 617.5C1326 618.328 1325.36 619 1324.56 619Z" fill="#24292E"/>
<path fill-rule="evenodd" clip-rule="evenodd" d="M1356.58 619H1338.42C1337.64 619 1337 618.328 1337 617.5C1337 616.672 1337.64 616 1338.42 616H1356.58C1357.36 616 1358 616.672 1358 617.5C1358 618.328 1357.36 619 1356.58 619Z" fill="#24292E"/>
<path fill-rule="evenodd" clip-rule="evenodd" d="M1276.63 640H1264.37C1263.61 640 1263 639.328 1263 638.5C1263 637.672 1263.61 637 1264.37 637H1276.63C1277.39 637 1278 637.672 1278 638.5C1278 639.328 1277.39 640 1276.63 640Z" fill="#24292E"/>
<path fill-rule="evenodd" clip-rule="evenodd" d="M1248.6 640H1224.4C1223.63 640 1223 639.328 1223 638.5C1223 637.672 1223.63 637 1224.4 637H1248.6C1249.37 637 1250 637.672 1250 638.5C1250 639.328 1249.37 640 1248.6 640Z" fill="#24292E"/>
<path fill-rule="evenodd" clip-rule="evenodd" d="M1082.55 640H1061.45C1060.65 640 1060 639.328 1060 638.5C1060 637.672 1060.65 637 1061.45 637H1082.55C1083.07 637 1083.55 637.286 1083.81 637.75C1084.06 638.214 1084.06 638.786 1083.81 639.25C1083.55 639.714 1083.07 640 1082.55 640Z" fill="#24292E"/>
<path fill-rule="evenodd" clip-rule="evenodd" d="M1052.59 640H993.409C992.631 640 992 639.328 992 638.5C992 637.672 992.631 637 993.409 637H1052.59C1053.37 637 1054 637.672 1054 638.5C1054 639.328 1053.37 640 1052.59 640Z" fill="#24292E"/>
<path fill-rule="evenodd" clip-rule="evenodd" d="M1146.57 640H1098.43C1097.64 640 1097 639.328 1097 638.5C1097 637.672 1097.64 637 1098.43 637H1146.57C1147.36 637 1148 637.672 1148 638.5C1148 639.328 1147.36 640 1146.57 640Z" fill="#24292E"/>
<path fill-rule="evenodd" clip-rule="evenodd" d="M1304.59 661H1242.41C1241.63 661 1241 660.328 1241 659.5C1241 658.672 1241.63 658 1242.41 658H1304.59C1305.37 658 1306 658.672 1306 659.5C1306 660.328 1305.37 661 1304.59 661Z" fill="#24292E"/>
<path fill-rule="evenodd" clip-rule="evenodd" d="M1116.56 661H1081.44C1080.64 661 1080 660.328 1080 659.5C1080 658.672 1080.64 658 1081.44 658H1116.56C1117.36 658 1118 658.672 1118 659.5C1118 660.328 1117.36 661 1116.56 661Z" fill="#24292E"/>
<path fill-rule="evenodd" clip-rule="evenodd" d="M1015.56 661H997.44C996.645 661 996 660.328 996 659.5C996 658.672 996.645 658 997.44 658H1015.56C1016.36 658 1017 658.672 1017 659.5C1017 660.328 1016.36 661 1015.56 661Z" fill="#24292E"/>
<path fill-rule="evenodd" clip-rule="evenodd" d="M985.577 661H921.418C920.635 661 920 660.328 920 659.5C920 658.672 920.635 658 921.418 658H985.587C986.37 658.003 987.003 658.677 987 659.505C986.997 660.333 986.36 661.003 985.577 661Z" fill="#24292E"/>
<path fill-rule="evenodd" clip-rule="evenodd" d="M304.556 640H288.449C287.649 640 287 639.328 287 638.5C287 637.672 287.649 637 288.449 637H304.546C305.346 636.997 305.997 637.667 306 638.495C306.003 639.323 305.356 639.997 304.556 640Z" fill="#24292E"/>
<path fill-rule="evenodd" clip-rule="evenodd" d="M61.5545 640H42.4455C41.6472 640 41 639.328 41 638.5C41 637.672 41.6472 637 42.4455 637H61.5545C62.3528 637 63 637.672 63 638.5C63 639.328 62.3528 640 61.5545 640Z" fill="#24292E"/>
<path fill-rule="evenodd" clip-rule="evenodd" d="M331.558 640H314.442C313.645 640 313 639.328 313 638.5C313 637.672 313.645 637 314.442 637H331.558C332.355 637 333 637.672 333 638.5C333 639.328 332.355 640 331.558 640Z" fill="#24292E"/>
<path fill-rule="evenodd" clip-rule="evenodd" d="M331.586 661H269.414C268.633 661 268 660.328 268 659.5C268 658.672 268.633 658 269.414 658H331.586C332.367 658 333 658.672 333 659.5C333 660.328 332.367 661 331.586 661Z" fill="#24292E"/>
<path fill-rule="evenodd" clip-rule="evenodd" d="M256.56 661H198.44C197.645 661 197 660.328 197 659.5C197 658.672 197.645 658 198.44 658H256.56C257.355 658 258 658.672 258 659.5C258 660.328 257.355 661 256.56 661Z" fill="#24292E"/>
<path fill-rule="evenodd" clip-rule="evenodd" d="M173.573 661H158.432C157.641 661 157 660.328 157 659.5C157 658.672 157.641 658 158.432 658H173.563C174.354 657.997 174.997 658.667 175 659.495C175.003 660.323 174.364 660.997 173.573 661Z" fill="#24292E"/>
<path fill-rule="evenodd" clip-rule="evenodd" d="M91.58 661H23.42C22.6358 661 22 660.328 22 659.5C22 658.672 22.6358 658 23.42 658H91.58C92.3642 658 93 658.672 93 659.5C93 660.328 92.3642 661 91.58 661Z" fill="#24292E"/>
<path fill-rule="evenodd" clip-rule="evenodd" d="M407.584 661H345.416C344.634 661 344 660.328 344 659.5C344 658.672 344.634 658 345.416 658H407.584C408.366 658 409 658.672 409 659.5C409 660.328 408.366 661 407.584 661Z" fill="#24292E"/>
<path fill-rule="evenodd" clip-rule="evenodd" d="M1199.62 578H1187.38C1186.62 578 1186 577.328 1186 576.5C1186 575.672 1186.62 575 1187.38 575H1199.62C1200.38 575 1201 575.672 1201 576.5C1201 577.328 1200.38 578 1199.62 578Z" fill="#24292E"/>
<path fill-rule="evenodd" clip-rule="evenodd" d="M1198.98 640H1170.41C1169.63 640 1169 639.309 1169 638.457C1169 637.604 1169.63 636.913 1170.41 636.913H1198.98C1207.94 636.902 1215.2 628.947 1215.21 619.132V594.868C1215.22 583.348 1223.75 574.011 1234.26 574H1357.59C1358.37 574 1359 574.691 1359 575.543C1359 576.396 1358.37 577.087 1357.59 577.087H1234.26C1225.3 577.098 1218.04 585.053 1218.03 594.868V619.132C1218.02 630.652 1209.5 639.989 1198.98 640Z" fill="#24292E"/>
<path fill-rule="evenodd" clip-rule="evenodd" d="M138.616 73C127.24 72.9944 118.016 63.0248 118 50.7176C118 49.8751 118.631 49.1921 119.41 49.1921C120.189 49.1921 120.82 49.8751 120.82 50.7176C120.831 61.3342 128.784 69.9378 138.597 69.949H142.706H224.935C233.902 69.9378 241.169 62.0764 241.18 52.3753V1.52549C241.18 0.682987 241.811 0 242.59 0C243.369 0 244 0.682987 244 1.52549V52.3753C243.99 63.7614 235.46 72.9888 224.935 73H142.724H138.616Z" fill="#24292E"/>
<path fill-rule="evenodd" clip-rule="evenodd" d="M173 597C173 600.866 175.91 604 179.5 604C183.088 603.994 185.995 600.864 186 597C186 593.134 183.09 590 179.5 590C175.91 590 173 593.134 173 597ZM175.995 597.022C175.995 594.937 177.564 593.247 179.5 593.247V593.194C180.438 593.193 181.337 593.598 181.996 594.318C182.655 595.037 183.018 596.011 183.005 597.022C183.005 599.106 181.436 600.796 179.5 600.796C177.564 600.796 175.995 599.106 175.995 597.022Z" fill="#24292E"/>
<path fill-rule="evenodd" clip-rule="evenodd" d="M47 408C47 411.866 49.9101 415 53.5 415C57.0876 414.994 59.9945 411.864 60 408C60 404.134 57.0899 401 53.5 401C49.9101 401 47 404.134 47 408ZM50.2622 406.577C50.8046 405.167 52.0825 404.247 53.5 404.247V404.237C54.4312 404.237 55.3241 404.636 55.9817 405.346C56.6392 406.056 57.0073 407.019 57.0046 408.022C57.0046 409.548 56.1507 410.924 54.8412 411.508C53.5316 412.093 52.0242 411.77 51.0219 410.69C50.0196 409.611 49.7197 407.988 50.2622 406.577Z" fill="#24292E"/>
<path fill-rule="evenodd" clip-rule="evenodd" d="M128 219C128 222.866 130.91 226 134.5 226C138.088 225.994 140.995 222.864 141 219C141 215.134 138.09 212 134.5 212C130.91 212 128 215.134 128 219ZM130.995 219.022C130.995 216.937 132.564 215.247 134.5 215.247V215.226C135.433 215.226 136.327 215.626 136.985 216.339C137.643 217.051 138.01 218.017 138.005 219.022C138.005 221.106 136.436 222.796 134.5 222.796C132.564 222.796 130.995 221.106 130.995 219.022Z" fill="#24292E"/>
<path fill-rule="evenodd" clip-rule="evenodd" d="M98.6222 305C98.2471 305 97.8874 304.837 97.6223 304.547L78.3797 283.596C77.8603 282.988 77.8756 282.04 78.4144 281.452C78.9532 280.864 79.822 280.848 80.3795 281.414L99.622 302.407C100 302.851 100.105 303.496 99.8893 304.055C99.6737 304.615 99.178 304.984 98.6222 305Z" fill="#24292E"/>
<path fill-rule="evenodd" clip-rule="evenodd" d="M320.43 53C319.851 52.9994 319.33 52.6191 319.109 52.0362C318.888 51.4533 319.01 50.7824 319.419 50.3359L338.594 29.4189C339.157 28.8458 340.036 28.8628 340.581 29.4572C341.126 30.0516 341.141 31.0101 340.616 31.6251L321.441 52.5421C321.173 52.8349 320.809 52.9996 320.43 53Z" fill="#24292E"/>
<path fill-rule="evenodd" clip-rule="evenodd" d="M1279.53 304.999C1279.15 304.999 1278.79 304.835 1278.52 304.544L1259.38 283.611C1258.86 283 1258.87 282.046 1259.42 281.455C1259.96 280.863 1260.83 280.847 1261.39 281.417L1280.58 302.349C1281 302.8 1281.11 303.48 1280.88 304.065C1280.65 304.65 1280.11 305.02 1279.53 304.999Z" fill="#24292E"/>
<path fill-rule="evenodd" clip-rule="evenodd" d="M1238.42 95C1237.85 94.9994 1237.33 94.6211 1237.11 94.0412C1236.89 93.4613 1237.01 92.7938 1237.42 92.3497L1256.61 71.4168C1257.17 70.8466 1258.04 70.8635 1258.58 71.4548C1259.13 72.0462 1259.14 72.9997 1258.62 73.6115L1239.43 94.5445C1239.16 94.8358 1238.8 94.9996 1238.42 95Z" fill="#24292E"/>
<path fill-rule="evenodd" clip-rule="evenodd" d="M1216.42 535.998C1215.85 535.998 1215.33 535.619 1215.11 535.038C1214.89 534.458 1215.01 533.79 1215.42 533.345L1234.61 512.417C1235.17 511.846 1236.04 511.863 1236.58 512.455C1237.12 513.047 1237.14 514.002 1236.62 514.615L1217.46 535.573C1217.18 535.864 1216.81 536.018 1216.42 535.998Z" fill="#24292E"/>
<path fill-rule="evenodd" clip-rule="evenodd" d="M114.415 618.999C113.843 618.999 113.327 618.622 113.108 618.044C112.889 617.466 113.01 616.8 113.414 616.358L132.547 595.493C132.9 595.079 133.432 594.908 133.934 595.048C134.436 595.188 134.828 595.616 134.956 596.165C135.084 596.713 134.928 597.294 134.549 597.68L115.454 618.545C115.18 618.846 114.804 619.01 114.415 618.999Z" fill="#24292E"/>
<path fill-rule="evenodd" clip-rule="evenodd" d="M116.914 410H58.4153C57.6336 410 57 409.307 57 408.453C57 407.599 57.6336 406.906 58.4153 406.906H116.914C121.217 406.959 125.359 405.12 128.409 401.802C131.459 398.484 133.162 393.965 133.134 389.262L133.341 343.785C133.372 332.263 141.924 322.939 152.466 322.934H168.384C178.188 322.934 186.143 314.262 186.169 303.547C186.169 302.693 186.803 302 187.585 302C188.366 302 189 302.693 189 303.547C188.974 315.971 179.751 326.028 168.384 326.027H152.476C143.486 326.027 136.193 333.98 136.172 343.806L135.964 389.272C135.928 400.74 127.406 410.011 116.914 410Z" fill="#24292E"/>
<path fill-rule="evenodd" clip-rule="evenodd" d="M96.4298 515C95.6401 515 95 514.306 95 513.45C95 512.593 95.6401 511.899 96.4298 511.899C106.244 511.848 114.167 503.192 114.14 492.55C114.14 491.694 114.78 491 115.57 491C116.36 491 117 491.694 117 492.55C117.021 504.902 107.821 514.943 96.4298 515Z" fill="#24292E"/>
<path fill-rule="evenodd" clip-rule="evenodd" d="M291 31C291 34.866 293.91 38 297.5 38C301.088 37.9941 303.995 34.8635 304 31C304 27.134 301.09 24 297.5 24C293.91 24 291 27.134 291 31ZM293.995 31.0215C293.995 28.9371 295.564 27.2473 297.5 27.2473C299.436 27.2473 301.005 28.9371 301.005 31.0215C301.005 33.1059 299.436 34.7957 297.5 34.7957C295.564 34.7957 293.995 33.1059 293.995 31.0215Z" fill="#24292E"/>
<path fill-rule="evenodd" clip-rule="evenodd" d="M1295 136C1295 139.866 1297.91 143 1301.5 143C1305.09 142.994 1307.99 139.864 1308 136C1308 132.134 1305.09 129 1301.5 129C1297.91 129 1295 132.134 1295 136ZM1298 136.022C1298 133.937 1299.56 132.247 1301.5 132.247V132.226C1302.43 132.226 1303.33 132.626 1303.99 133.339C1304.64 134.051 1305.01 135.017 1305 136.022C1305 138.106 1303.44 139.796 1301.5 139.796C1299.56 139.796 1298 138.106 1298 136.022Z" fill="#24292E"/>
<path fill-rule="evenodd" clip-rule="evenodd" d="M1286 429C1286 432.866 1288.91 436 1292.5 436C1296.09 436 1299 432.866 1299 429C1299 425.134 1296.09 422 1292.5 422C1288.91 422 1286 425.134 1286 429ZM1289 429.022C1289 426.937 1290.56 425.247 1292.5 425.247V425.237C1293.43 425.237 1294.32 425.636 1294.98 426.346C1295.64 427.056 1296.01 428.019 1296 429.022C1296 431.106 1294.44 432.796 1292.5 432.796C1290.56 432.796 1289 431.106 1289 429.022Z" fill="#24292E"/>
<path fill-rule="evenodd" clip-rule="evenodd" d="M1159 639C1159 642.866 1161.91 646 1165.5 646C1169.09 645.994 1171.99 642.864 1172 639C1172 635.134 1169.09 632 1165.5 632C1161.91 632 1159 635.134 1159 639ZM1162 639.022C1162 636.937 1163.56 635.247 1165.5 635.247V635.237C1166.43 635.237 1167.32 635.636 1167.98 636.346C1168.64 637.056 1169.01 638.019 1169 639.022C1169 641.106 1167.44 642.796 1165.5 642.796C1163.56 642.796 1162 641.106 1162 639.022Z" fill="#24292E"/>
<path fill-rule="evenodd" clip-rule="evenodd" d="M1294.42 200C1293.64 200 1293 199.306 1293 198.45C1293 197.593 1293.64 196.899 1294.42 196.899C1304.21 196.888 1312.15 188.232 1312.16 177.55C1312.16 176.694 1312.79 176 1313.58 176C1314.36 176 1315 176.694 1315 177.55C1314.98 189.942 1305.78 199.983 1294.42 200Z" fill="#24292E"/>
<path fill-rule="evenodd" clip-rule="evenodd" d="M1062.42 73C1061.64 73 1061 72.3068 1061 71.4516C1061.01 59.0566 1070.22 49.0114 1081.58 49C1082.36 49 1083 49.6932 1083 50.5484C1083 51.4035 1082.36 52.0968 1081.58 52.0968C1071.79 52.1082 1063.85 60.7669 1063.84 71.4516C1063.84 72.3068 1063.2 73 1062.42 73Z" fill="#24292E"/>
<path fill-rule="evenodd" clip-rule="evenodd" d="M1252.41 52C1251.63 52 1251 51.2892 1251 50.4123C1251.03 38.5822 1259.56 29.0058 1270.08 29H1358.59C1359.37 29 1360 29.7108 1360 30.5877C1360 31.4645 1359.37 32.1753 1358.59 32.1753H1270.08C1265.77 32.1641 1261.63 34.0803 1258.57 37.5024C1255.51 40.9245 1253.79 45.5721 1253.78 50.4229C1253.77 51.2754 1253.17 51.9716 1252.41 52Z" fill="#24292E"/>
<path fill-rule="evenodd" clip-rule="evenodd" d="M1357.58 473H1338.2C1327.6 472.989 1319.01 463.569 1319 451.946V366.557C1319 365.697 1319.64 365 1320.42 365C1321.2 365 1321.84 365.697 1321.84 366.557V451.946C1321.85 461.849 1329.17 469.874 1338.2 469.886H1357.58C1358.09 469.887 1358.56 470.186 1358.81 470.669C1359.06 471.151 1359.06 471.745 1358.81 472.226C1358.55 472.707 1358.08 473.002 1357.58 473Z" fill="#24292E"/>
<path fill-rule="evenodd" clip-rule="evenodd" d="M1234.67 177C1233.88 177 1233.25 176.308 1233.25 175.455C1233.23 165.645 1225.92 157.704 1216.91 157.704L1158.44 157.787C1147.87 157.77 1139.3 148.456 1139.26 136.946L1139 4.54529C1139 3.69185 1139.64 3 1140.42 3C1141.2 3 1141.84 3.69185 1141.84 4.54529L1142.02 136.946C1142.05 146.751 1149.35 154.685 1158.35 154.696L1216.83 154.614C1227.4 154.62 1235.97 163.94 1236 175.455C1236 176.308 1235.36 177 1234.58 177H1234.67Z" fill="#24292E"/>
<path fill-rule="evenodd" clip-rule="evenodd" d="M1321.39 376C1320.62 376 1319.99 375.308 1319.99 374.455V280.604C1319.98 270.78 1312.77 262.82 1303.86 262.815H1251.93C1241.48 262.803 1233.01 253.457 1233 241.925V234.446L1233.17 133.839C1233.19 122.325 1241.66 113.006 1252.09 113L1364.6 113.082C1365.37 113.082 1366 113.774 1366 114.628C1366 115.481 1365.37 116.173 1364.6 116.173L1252.09 116.09C1243.19 116.09 1235.98 124.034 1235.96 133.849L1235.77 241.935C1235.78 251.759 1243 259.719 1251.9 259.725H1303.84C1314.28 259.736 1322.75 269.076 1322.76 280.604V374.455C1322.77 375.296 1322.16 375.983 1321.39 376Z" fill="#24292E"/>
<path fill-rule="evenodd" clip-rule="evenodd" d="M179.579 221C178.794 221 178.158 220.306 178.158 219.45C178.147 208.768 170.212 200.112 160.421 200.101C159.636 200.101 159 199.407 159 198.55C159 197.694 159.636 197 160.421 197C171.78 197.017 180.984 207.058 181 219.45C181 219.861 180.85 220.255 180.584 220.546C180.317 220.837 179.956 221 179.579 221Z" fill="#24292E"/>
</g>
</svg>
